<svg xmlns="http://www.w3.org/2000/svg" xmlns:xlink="http://www.w3.org/1999/xlink" width="482.973" height="470.023" viewBox="0 0 482.973 470.023">
  <defs>
    <linearGradient id="linear-gradient" x1="-0.21" y1="0.062" x2="1.21" y2="0.938" gradientUnits="objectBoundingBox">
      <stop offset="0" stop-color="#543864"/>
      <stop offset="0.41" stop-color="#382843"/>
      <stop offset="1" stop-color="#1c1822"/>
    </linearGradient>
  </defs>
  <path id="shape" d="M80.586-35.413C156.277-58.87,245.308-61.812,302.4-46.782,362.2-31.322,390.052,2.111,405.8,61.331c13.934,60.2,8.127,83.088-22.5,126.868-12.9,20.269,1.3,135.033-42.278,128.051-45.331-7.263-53.266,64.96-102.214,29.045-61.033-46.364-112.644,76.183-153.159,68.335C36.745,407.142,87.7,281.4,16.146,274c-180.619-18.68-12.4-157.7-52.853-176C-133.773,54.082,4.822-13.314,80.586-35.413Z" transform="translate(70.004 56.031)" fill="url(#linear-gradient)"/>
</svg>
