<svg xmlns="http://www.w3.org/2000/svg" xmlns:xlink="http://www.w3.org/1999/xlink" width="504.218" height="504.28" viewBox="0 0 504.218 504.28">
  <defs>
    <clipPath id="clip-path">
      <path id="Path_19" data-name="Path 19" d="M220.734-346.047s8.373-2.133,9.447-3.954-9.6-16.843-13.182-17.424-8.724,6.877-9.721,9.1S220.734-346.047,220.734-346.047Z" fill="#ff6957"/>
    </clipPath>
    <clipPath id="clip-path-2">
      <path id="Path_41" data-name="Path 41" d="M283.618-367.552s2.457-8.277,1.441-10.132-19.4-.395-21.732,2.38,1.442,11.009,2.84,13S283.618-367.552,283.618-367.552Z" fill="#ff6957"/>
    </clipPath>
    <clipPath id="clip-path-3">
      <path id="Path_63" data-name="Path 63" d="M332.546-354.024s-5.132-6.488-7.147-6.716-11.008,14.957-10.121,18.314,9.426,4.945,11.76,4.951S332.546-354.024,332.546-354.024Z" fill="#ff6957"/>
    </clipPath>
    <clipPath id="clip-path-4">
      <path id="Path_76" data-name="Path 76" d="M205.829-300.9c.625.042,9.6,5.982,10.689,8.932s-1.8,9.032-3.142,9.451-10.23.888-13.362-1.116-9.133-6.992-8.791-9.441S201.193-301.209,205.829-300.9Z" fill="#ff9b0d"/>
    </clipPath>
    <clipPath id="clip-path-5">
      <path id="Path_100" data-name="Path 100" d="M260.7-308.9c.463-.421,10.97-2.757,13.855-1.495s5.262,7.561,4.635,8.817-6.457,7.976-10.074,8.838-11.377,1.721-12.906-.224S257.264-305.777,260.7-308.9Z" fill="#ff9b0d"/>
    </clipPath>
    <clipPath id="clip-path-6">
      <path id="Path_124" data-name="Path 124" d="M319.49-298.178c.561-.134,10.078,2.647,11.846,4.946s.882,8.438-.184,9.173-8.76,3.569-12.062,2.659-9.946-3.662-10.314-5.91S315.327-297.187,319.49-298.178Z" fill="#ff9b0d"/>
    </clipPath>
    <clipPath id="clip-path-7">
      <path id="Path_180" data-name="Path 180" d="M345.147-268.3s-8.387,4.452-14.611,4.291-14.236,4.371-14.236,4.371,3.221,32.338,9.6,53.632S350.775-161.6,350.775-161.6s20.112-.768,23.37-3.194a17.094,17.094,0,0,0,4.89-6.375s-7.608-13.743-7.739-20.414-4.426-26.736-11.205-40.692S345.147-268.3,345.147-268.3Z" fill="#ff9b0d"/>
    </clipPath>
    <clipPath id="clip-path-8">
      <path id="Path_215" data-name="Path 215" d="M315.838-164.379s-18.422,12.874-32.357,13.254c0,0-18.659-27.813-26.239-46.284s-11.271-48.8-10.045-62.654a133.207,133.207,0,0,0,17.192-5.923c7.044-3.214,15.913-7.11,15.913-7.11s12.017,42.111,18.76,57.9S313.964-171.834,315.838-164.379Z" fill="#ff6957"/>
    </clipPath>
  </defs>
  <g id="Group_148" data-name="Group 148" transform="matrix(0.616, -0.788, 0.788, 0.616, 293.562, 617.861)">
    <g id="Group_1" data-name="Group 1">
      <ellipse id="Ellipse_1" data-name="Ellipse 1" cx="179.709" cy="179.527" rx="179.709" ry="179.527" transform="translate(82.963 -437.353)" fill="#724747"/>
      <ellipse id="Ellipse_2" data-name="Ellipse 2" cx="154.696" cy="154.54" rx="154.696" ry="154.54" transform="translate(107.975 -412.365)" fill="#3a2626"/>
      <path id="Path_1" data-name="Path 1" d="M432.817-207.914C460.411-301.787,406.6-400.234,312.634-427.8S120.119-401.613,92.525-307.738s26.214,192.32,120.183,219.886S405.223-114.039,432.817-207.914ZM217.491-104.124C132.518-129.05,83.861-218.073,108.814-302.96s114.064-133.5,199.037-108.568S441.482-297.579,416.529-212.692,302.464-79.2,217.491-104.124Z" fill="#a26161"/>
      <ellipse id="Ellipse_3" data-name="Ellipse 3" cx="106.567" cy="106.459" rx="106.567" ry="106.459" transform="translate(181.971 -399.744)" fill="#2b1b1b"/>
    </g>
    <g id="Group_147" data-name="Group 147">
      <g id="Group_118" data-name="Group 118">
        <g id="Group_53" data-name="Group 53">
          <g id="Group_18" data-name="Group 18">
            <ellipse id="Ellipse_4" data-name="Ellipse 4" cx="31.877" cy="31.845" rx="31.877" ry="31.845" transform="translate(191.181 -386.924)" fill="#211414"/>
            <g id="Group_17" data-name="Group 17">
              <g id="Group_11" data-name="Group 11">
                <path id="Path_2" data-name="Path 2" d="M218.567-330.791s-9.358,2.408-11.751-3.925c0,0-5.945-.3-5.7-6.384,0,0-4.543.632-3.511-4.769,0,0-4.5-2.086-1.812-7.165,0,0-3.631-5.057.617-9.018,0,0-1.069-5.789,3.564-7.215,0,0-.691-4.683,3.721-4.415,0,0,3.322-6.319,8.621-4.736,0,0,1.7-3.864,5.294-1.32,0,0,3.822-4.374,7.842.606,0,0,5.124-3.483,8.2,2.353,0,0,5.085.366,5.943,4.642,0,0,5.09,2.091,3.973,5.674,0,0,4.552,2.819,2.914,7.378,0,0,3.175,3.562-.085,6.86a5.941,5.941,0,0,1-1.642,7.172s.315,5.6-4.93,6.772c0,0-.78,6.813-7.431,5.627,0,0-1.032,4.454-5.488,2.267C226.9-330.388,222.714-325.58,218.567-330.791Z" fill="#bbe1e7"/>
                <path id="Path_3" data-name="Path 3" d="M239.832-353.139s3.631,6.187-1.7,9.651c0,0,.922,5.5-4.706,6.507,0,0,1.494,4.032-3.668,4.175,0,0-1,4.536-6.205,3.1,0,0-3.906,4.341-8.4,1.252,0,0-5.094,2.144-7.335-1.809,0,0-4.156,1.576-4.8-2.516,0,0-5.885-.508-5.5-5.677,0,0-4.464-2.039-2.853-5.84,0,0-4.783-2.618-1.025-7.3a5.09,5.09,0,0,1,.506-7.975s-.688-4.729,3.061-6.375c0,0,.891-5.08,4.4-4.779,0,0,1.669-4.735,6.179-4.154,0,0,2.629-3.624,6.31-1.3a5.585,5.585,0,0,1,6.908.059s5.071-1.416,7.205,3.146c0,0,6.405-.657,6.658,5.67,0,0,4.81.841,3.7,5.36C238.579-361.947,244.065-359.938,239.832-353.139Z" fill="#fff"/>
                <g id="Group_10" data-name="Group 10">
                  <g id="Group_2" data-name="Group 2">
                    <path id="Path_4" data-name="Path 4" d="M231.127-341.271a1.687,1.687,0,0,0-1.251-.5,2.1,2.1,0,0,0-2.1,1.8,5.923,5.923,0,0,1,1.141-.6A13.31,13.31,0,0,1,231.127-341.271Z" fill="#74bbc0"/>
                  </g>
                  <g id="Group_3" data-name="Group 3">
                    <path id="Path_5" data-name="Path 5" d="M235.371-359.731a5.86,5.86,0,0,1-.141-1.106,9.056,9.056,0,0,0-.363-2.438,3.107,3.107,0,0,0-.538,1.243,2.509,2.509,0,0,0,.064,1.293A1.525,1.525,0,0,0,235.371-359.731Z" fill="#74bbc0"/>
                  </g>
                  <g id="Group_4" data-name="Group 4">
                    <path id="Path_6" data-name="Path 6" d="M230.019-361.9a6.6,6.6,0,0,1-1.831-.406,5.247,5.247,0,0,1-2.305-3.138s-.047.223-.09.63a3.959,3.959,0,0,0,.28,1.632,2.868,2.868,0,0,0,1.664,1.584,2.7,2.7,0,0,0,1.22.126A4.167,4.167,0,0,0,230.019-361.9Z" fill="#74bbc0"/>
                  </g>
                  <g id="Group_5" data-name="Group 5">
                    <path id="Path_7" data-name="Path 7" d="M201.314-355.935a9.535,9.535,0,0,1,.437,2.01c.112,1.182.22,2.821-1.7,3.1a2.611,2.611,0,0,0,.661.132,1.708,1.708,0,0,0,1.624-.826A3.6,3.6,0,0,0,201.314-355.935Z" fill="#74bbc0"/>
                  </g>
                  <g id="Group_6" data-name="Group 6">
                    <path id="Path_8" data-name="Path 8" d="M203.5-371.436s.175.063.493.143a4.254,4.254,0,0,0,1.359.118,3.523,3.523,0,0,0,1.875-.66,3.313,3.313,0,0,0,1.215-1.871l-.443.36a5.477,5.477,0,0,1-1.1.733A31.232,31.232,0,0,1,203.5-371.436Z" fill="#74bbc0"/>
                  </g>
                  <g id="Group_7" data-name="Group 7">
                    <path id="Path_9" data-name="Path 9" d="M211.327-373.04l-.274.342a1.571,1.571,0,0,1-.314.345,2.228,2.228,0,0,1-.431.371,3.225,3.225,0,0,1-2.829.562,2.125,2.125,0,0,0,1.611.844A2.177,2.177,0,0,0,211.327-373.04Z" fill="#74bbc0"/>
                  </g>
                  <g id="Group_8" data-name="Group 8">
                    <path id="Path_10" data-name="Path 10" d="M214.567-331.526a4.124,4.124,0,0,0-.144-.438,3.041,3.041,0,0,0-.693-1.008,3.514,3.514,0,0,0-1.494-.9,2.316,2.316,0,0,0-1.973.312l.5.056a4.279,4.279,0,0,1,1.075.377C212.664-332.727,213.508-332.118,214.567-331.526Z" fill="#74bbc0"/>
                  </g>
                  <g id="Group_9" data-name="Group 9">
                    <path id="Path_11" data-name="Path 11" d="M225.463-332.7a2.685,2.685,0,0,0-.236-.266,2.145,2.145,0,0,0-.8-.516,1.833,1.833,0,0,0-1.427.036,1.863,1.863,0,0,0-.994,1.2l.372-.142a3.419,3.419,0,0,1,.826-.243C223.805-332.778,224.442-332.6,225.463-332.7Z" fill="#74bbc0"/>
                  </g>
                </g>
              </g>
              <g id="Group_16" data-name="Group 16">
                <path id="Path_12" data-name="Path 12" d="M208.211-343.172s-.767,1.576.357,2.448,7.658,3.722,9.872,3.032,1.748-6.886,1.748-6.886,7.928-.956,11.155-3.963-11.622-20.568-14.848-20.828-11.328,6.629-10.976,12.41C205.519-356.958,201.112-348.41,208.211-343.172Z" fill="#151d2b"/>
                <g id="Group_13" data-name="Group 13">
                  <path id="Path_13" data-name="Path 13" d="M220.734-346.047s8.373-2.133,9.447-3.954-9.6-16.843-13.182-17.424-8.724,6.877-9.721,9.1S220.734-346.047,220.734-346.047Z" fill="#ff6957"/>
                  <g id="Group_12" data-name="Group 12" clip-path="url(#clip-path)">
                    <path id="Path_14" data-name="Path 14" d="M222.1-347.661s6.553-1.67,7.394-3.095-7.513-13.181-10.315-13.635-6.827,5.382-7.608,7.12S222.1-347.661,222.1-347.661Z" fill="#ff8f87"/>
                    <path id="Path_15" data-name="Path 15" d="M216.847-364.916c2.251-.281,4.389-1.005,6.6-1.466.23-.048.284.254.114.363-3.525,2.219-9.41,3.453-13.493,2.445-.4-.1-.283-.657.059-.736C212.3-364.816,214.62-364.637,216.847-364.916Z" fill="#ffd7d6"/>
                    <path id="Path_16" data-name="Path 16" d="M227.247-362.509c-1.542,2.685-4.909,3.915-7.635,5.053-3.4,1.422-7.3,3.17-11.044,2.951-.532-.031-.749-.9-.193-1.074,3.527-1.13,7.105-1.908,10.534-3.391a82.593,82.593,0,0,0,7.648-4.36C227.084-363.624,227.5-362.941,227.247-362.509Z" fill="#ffd7d6"/>
                    <path id="Path_17" data-name="Path 17" d="M229.866-356.673c-1.584,2.63-4.138,3.865-6.919,4.974-2.879,1.148-6.211,2.436-9.325,2.541-.314.01-.348-.444-.1-.565,2.488-1.212,5.373-1.592,7.976-2.558,2.942-1.092,5.363-3.048,7.909-4.815A.317.317,0,0,1,229.866-356.673Z" fill="#ffd7d6"/>
                    <path id="Path_18" data-name="Path 18" d="M230.019-351.84a51.037,51.037,0,0,1-3.921,4.919c-1.282,1.31-3.369,2.9-5.227,3.154a.424.424,0,0,1-.419-.654c1.017-1.644,3.174-2.477,4.679-3.661,1.59-1.252,2.938-2.816,4.483-4.129C229.85-352.412,230.21-352.091,230.019-351.84Z" fill="#ffd7d6"/>
                  </g>
                </g>
                <g id="Group_14" data-name="Group 14">
                  <path id="Path_20" data-name="Path 20" d="M217.988-339.544s1.611-4.266,1.015-5.545-5.35-4.117-5.35-4.117l-4.617,7.414S216.674-338.844,217.988-339.544Z" fill="#dfcd27"/>
                  <path id="Path_21" data-name="Path 21" d="M218.253-341.007s1.163-3.081.733-4.006-3.866-2.974-3.866-2.974l-3.335,5.355S217.3-340.5,218.253-341.007Z" fill="#fff03e"/>
                </g>
                <g id="Group_15" data-name="Group 15">
                  <path id="Path_22" data-name="Path 22" d="M211.774-350.378s-3.483-4.356-5.03-4.9c-1.486,1.65-1.409,6.142,1.8,10.471C208.544-344.811,211.816-348.959,211.774-350.378Z" fill="#e1c242"/>
                  <path id="Path_23" data-name="Path 23" d="M211.548-349.762s-2.815-3.521-4.066-3.963c-1.2,1.333-1.138,4.964,1.454,8.465C208.937-345.26,211.582-348.613,211.548-349.762Z" fill="#ffea96"/>
                </g>
              </g>
            </g>
          </g>
          <g id="Group_35" data-name="Group 35">
            <ellipse id="Ellipse_5" data-name="Ellipse 5" cx="31.877" cy="31.845" rx="31.877" ry="31.845" transform="translate(248.776 -402.766)" fill="#211414"/>
            <g id="Group_34" data-name="Group 34">
              <g id="Group_28" data-name="Group 28">
                <path id="Path_24" data-name="Path 24" d="M278.013-345.738s-9.358,2.408-11.751-3.925c0,0-5.945-.3-5.7-6.384,0,0-4.545.63-3.511-4.771,0,0-4.5-2.084-1.812-7.163,0,0-3.631-5.058.617-9.02,0,0-1.069-5.788,3.563-7.214,0,0-.69-4.683,3.721-4.417,0,0,3.322-6.317,8.621-4.736,0,0,1.7-3.864,5.3-1.318,0,0,3.822-4.374,7.842.606,0,0,5.122-3.484,8.2,2.353,0,0,5.085.366,5.943,4.642,0,0,5.09,2.089,3.973,5.672,0,0,4.551,2.821,2.914,7.379,0,0,3.175,3.562-.086,6.86A5.939,5.939,0,0,1,304.193-360s.315,5.6-4.929,6.774c0,0-.78,6.812-7.432,5.627,0,0-1.032,4.454-5.487,2.267C286.345-345.335,282.16-340.529,278.013-345.738Z" fill="#bbe1e7"/>
                <path id="Path_25" data-name="Path 25" d="M287.306-387.571s7.179.054,7.43,6.4c0,0,5.2,2.029,3.18,7.372,0,0,4.232.784,1.71,5.286,0,0,3.384,3.187-.514,6.912,0,0,1.731,5.577-3.226,7.845,0,0-.767,5.469-5.313,5.366,0,0-.775,4.372-4.624,2.828,0,0-3.452,4.789-7.7,1.812,0,0-4.04,2.785-6.483-.545,0,0-4.7,2.762-6.8-2.861,0,0-5.593,1.584-6.6-4.522,0,0-4.417-1.833-3.913-5.892,0,0-3.91-3.368-1.852-6.226,0,0-3.214-3.859-.4-7.431,0,0-1.769-4.111,2.112-6.081a5.575,5.575,0,0,1,3.59-5.9s1.38-5.075,6.4-4.568c0,0,2.716-5.833,8.286-2.806,0,0,3.188-3.7,6.5-.43C279.092-391.009,283.631-394.686,287.306-387.571Z" fill="#fff"/>
                <g id="Group_27" data-name="Group 27">
                  <g id="Group_19" data-name="Group 19">
                    <path id="Path_26" data-name="Path 26" d="M293.047-374.022a1.689,1.689,0,0,0-1.068.819,2.1,2.1,0,0,0,.477,2.725,5.873,5.873,0,0,1,.067-1.288A13.282,13.282,0,0,1,293.047-374.022Z" fill="#74bbc0"/>
                  </g>
                  <g id="Group_20" data-name="Group 20">
                    <path id="Path_27" data-name="Path 27" d="M279.355-387.122a5.912,5.912,0,0,1-1.025-.446,9.035,9.035,0,0,0-2.282-.937,3.117,3.117,0,0,0,.793,1.1,2.532,2.532,0,0,0,1.145.608A1.53,1.53,0,0,0,279.355-387.122Z" fill="#74bbc0"/>
                  </g>
                  <g id="Group_21" data-name="Group 21">
                    <path id="Path_28" data-name="Path 28" d="M274.747-383.642a6.619,6.619,0,0,1-1.288,1.364,5.263,5.263,0,0,1-3.878.369s.168.154.5.4a3.962,3.962,0,0,0,1.547.6,2.872,2.872,0,0,0,2.214-.615,2.685,2.685,0,0,0,.733-.982A4.175,4.175,0,0,0,274.747-383.642Z" fill="#74bbc0"/>
                  </g>
                  <g id="Group_22" data-name="Group 22">
                    <path id="Path_29" data-name="Path 29" d="M265.166-355.961a9.584,9.584,0,0,1,1.953.656c1.073.508,2.536,1.257,1.8,3.048a2.625,2.625,0,0,0,.452-.5,1.7,1.7,0,0,0,.121-1.815A3.6,3.6,0,0,0,265.166-355.961Z" fill="#74bbc0"/>
                  </g>
                  <g id="Group_23" data-name="Group 23">
                    <path id="Path_30" data-name="Path 30" d="M252.965-365.782s.143-.118.374-.349a4.2,4.2,0,0,0,.8-1.105,3.51,3.51,0,0,0,.394-1.948,3.312,3.312,0,0,0-.985-2l.081.564a5.514,5.514,0,0,1,.064,1.323A31.1,31.1,0,0,1,252.965-365.782Z" fill="#74bbc0"/>
                  </g>
                  <g id="Group_24" data-name="Group 24">
                    <path id="Path_31" data-name="Path 31" d="M255.593-373.315l.153.411a1.584,1.584,0,0,1,.136.445,2.207,2.207,0,0,1,.1.561,3.221,3.221,0,0,1-.965,2.715,2.133,2.133,0,0,0,1.551-.95A2.177,2.177,0,0,0,255.593-373.315Z" fill="#74bbc0"/>
                  </g>
                  <g id="Group_25" data-name="Group 25">
                    <path id="Path_32" data-name="Path 32" d="M292.939-354.823a4.232,4.232,0,0,0-.451-.1,3.037,3.037,0,0,0-1.221.078,3.517,3.517,0,0,0-1.538.82,2.314,2.314,0,0,0-.743,1.853l.3-.4a4.287,4.287,0,0,1,.877-.729C290.932-353.806,291.889-354.218,292.939-354.823Z" fill="#74bbc0"/>
                  </g>
                  <g id="Group_26" data-name="Group 26">
                    <path id="Path_33" data-name="Path 33" d="M297.511-364.773a2.73,2.73,0,0,0-.349.067,2.148,2.148,0,0,0-.853.419,1.833,1.833,0,0,0-.7,1.243,1.865,1.865,0,0,0,.519,1.465l.068-.391a3.412,3.412,0,0,1,.214-.834C296.6-363.389,297.073-363.847,297.511-364.773Z" fill="#74bbc0"/>
                  </g>
                </g>
              </g>
              <g id="Group_33" data-name="Group 33">
                <path id="Path_34" data-name="Path 34" d="M279.672-355.337s.962,1.465,2.288.947,7.123-4.662,7.665-6.916-5.025-5.027-5.025-5.027,3.242-7.29,2.31-11.6-23.636-.569-25.512,2.065-.1,13.114,5.045,15.776C266.442-360.091,271.532-351.93,279.672-355.337Z" fill="#151d2b"/>
                <g id="Group_30" data-name="Group 30">
                  <path id="Path_35" data-name="Path 35" d="M283.618-367.552s2.457-8.277,1.441-10.132-19.4-.395-21.732,2.38,1.442,11.009,2.84,13S283.618-367.552,283.618-367.552Z" fill="#ff6957"/>
                  <g id="Group_29" data-name="Group 29" clip-path="url(#clip-path-2)">
                    <path id="Path_36" data-name="Path 36" d="M282.929-369.552s1.924-6.476,1.128-7.928-15.18-.308-17.007,1.862,1.128,8.615,2.222,10.175S282.929-369.552,282.929-369.552Z" fill="#ff8f87"/>
                    <path id="Path_37" data-name="Path 37" d="M265.406-373.886c.911-2.076,1.384-4.282,2.121-6.414.077-.223.364-.115.369.086.1,4.163-1.852,9.844-4.813,12.83-.289.291-.71-.1-.6-.429C263.164-369.938,264.5-371.833,265.406-373.886Z" fill="#ffd7d6"/>
                    <path id="Path_38" data-name="Path 38" d="M272.8-381.577c1.519,2.7.851,6.217.432,9.141-.522,3.648-1.016,7.886-3.122,10.986-.3.44-1.153.184-1.022-.385.837-3.606,2-7.075,2.484-10.775a83.317,83.317,0,0,0,.172-8.8C271.762-382.007,272.559-382.012,272.8-381.577Z" fill="#ffd7d6"/>
                    <path id="Path_39" data-name="Path 39" d="M279.162-380.833c1.448,2.706,1.2,5.532.73,8.484-.488,3.059-1.088,6.578-2.594,9.3-.152.275-.559.072-.537-.2.233-2.755,1.384-5.424,1.888-8.153.569-3.082.128-6.162-.086-9.252A.317.317,0,0,1,279.162-380.833Z" fill="#ffd7d6"/>
                    <path id="Path_40" data-name="Path 40" d="M283.4-378.487a50.982,50.982,0,0,1,2.219,5.883c.469,1.771.764,4.376.032,6.1a.424.424,0,0,1-.777.025c-.891-1.716-.5-3.992-.749-5.891-.261-2-.914-3.962-1.252-5.961A.279.279,0,0,1,283.4-378.487Z" fill="#ffd7d6"/>
                  </g>
                </g>
                <g id="Group_31" data-name="Group 31">
                  <path id="Path_42" data-name="Path 42" d="M287.8-361.866s-2.842-3.568-4.247-3.711-6.279,2.479-6.279,2.479l4.006,7.76S287.729-360.38,287.8-361.866Z" fill="#dfcd27"/>
                  <path id="Path_43" data-name="Path 43" d="M286.678-362.843s-2.053-2.578-3.068-2.681-4.537,1.792-4.537,1.792l2.9,5.606S286.628-361.769,286.678-362.843Z" fill="#fff03e"/>
                </g>
                <g id="Group_32" data-name="Group 32">
                  <path id="Path_44" data-name="Path 44" d="M275.3-362.087s-5.53.756-6.793,1.8c.657,2.12,4.558,4.356,9.924,3.821C278.434-356.463,276.545-361.395,275.3-362.087Z" fill="#e1c242"/>
                  <path id="Path_45" data-name="Path 45" d="M275.717-361.576s-4.469.611-5.49,1.457c.531,1.714,3.684,3.521,8.021,3.09C278.248-357.03,276.721-361.017,275.717-361.576Z" fill="#ffea96"/>
                </g>
              </g>
            </g>
          </g>
          <g id="Group_52" data-name="Group 52">
            <ellipse id="Ellipse_6" data-name="Ellipse 6" cx="31.877" cy="31.845" rx="31.877" ry="31.845" transform="translate(303.528 -383.015)" fill="#211414"/>
            <g id="Group_51" data-name="Group 51">
              <g id="Group_45" data-name="Group 45">
                <path id="Path_46" data-name="Path 46" d="M330.3-327.2s-8.965,2.306-11.256-3.759c0,0-5.694-.289-5.462-6.115,0,0-4.352.6-3.363-4.568,0,0-4.309-2-1.736-6.862,0,0-3.478-4.845.591-8.639,0,0-1.025-5.545,3.413-6.912,0,0-.662-4.485,3.564-4.229,0,0,3.183-6.052,8.258-4.536,0,0,1.63-3.7,5.071-1.263,0,0,3.662-4.19,7.513.58,0,0,4.908-3.337,7.85,2.253,0,0,4.871.352,5.694,4.446,0,0,4.876,2,3.805,5.434,0,0,4.359,2.7,2.79,7.068,0,0,3.042,3.412-.082,6.57a5.691,5.691,0,0,1-1.573,6.87s.3,5.362-4.721,6.488c0,0-.748,6.526-7.119,5.389,0,0-.989,4.266-5.257,2.172C338.28-326.817,334.271-322.213,330.3-327.2Z" fill="#bbe1e7"/>
                <path id="Path_47" data-name="Path 47" d="M318.889-367.951s4-5.586,9.114-2.282c0,0,4.459-2.95,7.534,1.577,0,0,2.948-2.877,5.085,1.577,0,0,4.366-.889,5.136,4.214,0,0,5.326,1.723,4.371,6.851,0,0,3.864,3.616,1.275,7.117,0,0,3,3.018-.333,5.176,0,0,1.851,5.343-2.826,7.023,0,0-.044,4.7-4,4.771,0,0-.428,5.2-6,3.742a4.884,4.884,0,0,1-7.182,2.667s-3.873,2.445-6.777-.19c0,0-4.8,1.2-5.9-1.985,0,0-4.8.386-6.047-3.783,0,0-4.2-.884-3.6-5.006a5.343,5.343,0,0,1-2.642-6.062s-3.216-3.88-.052-7.524c0,0-3.074-5.343,2.369-8.029,0,0-1.138-4.533,3.251-5.327C311.662-363.423,311.283-369,318.889-367.951Z" fill="#fff"/>
                <g id="Group_44" data-name="Group 44">
                  <g id="Group_36" data-name="Group 36">
                    <path id="Path_48" data-name="Path 48" d="M332.676-364.969a1.618,1.618,0,0,0,.053,1.288,2.017,2.017,0,0,0,2.4,1.13,5.634,5.634,0,0,1-.973-.762A12.744,12.744,0,0,1,332.676-364.969Z" fill="#74bbc0"/>
                  </g>
                  <g id="Group_37" data-name="Group 37">
                    <path id="Path_49" data-name="Path 49" d="M314.855-361.484a5.606,5.606,0,0,1-.915.555,8.717,8.717,0,0,0-1.994,1.268,2.98,2.98,0,0,0,1.3-.014,2.435,2.435,0,0,0,1.109-.56A1.463,1.463,0,0,0,314.855-361.484Z" fill="#74bbc0"/>
                  </g>
                  <g id="Group_38" data-name="Group 38">
                    <path id="Path_50" data-name="Path 50" d="M315.042-355.959a6.386,6.386,0,0,1,.358,1.759,5.025,5.025,0,0,1-1.849,3.238s.214-.046.586-.167a3.813,3.813,0,0,0,1.32-.881,2.747,2.747,0,0,0,.738-2.072,2.568,2.568,0,0,0-.365-1.116A3.969,3.969,0,0,0,315.042-355.959Z" fill="#74bbc0"/>
                  </g>
                  <g id="Group_39" data-name="Group 39">
                    <path id="Path_51" data-name="Path 51" d="M331.456-333.195a9.2,9.2,0,0,1,1.591-1.167c.99-.559,2.384-1.291,3.379.276a2.514,2.514,0,0,0-.143-.628,1.635,1.635,0,0,0-1.356-1.1A3.451,3.451,0,0,0,331.456-333.195Z" fill="#74bbc0"/>
                  </g>
                  <g id="Group_40" data-name="Group 40">
                    <path id="Path_52" data-name="Path 52" d="M317.027-329.067s-.014-.178-.068-.486a4.01,4.01,0,0,0-.426-1.235,3.379,3.379,0,0,0-1.309-1.383,3.18,3.18,0,0,0-2.112-.332l.488.247a5.28,5.28,0,0,1,1.073.681A29.7,29.7,0,0,1,317.027-329.067Z" fill="#74bbc0"/>
                  </g>
                  <g id="Group_41" data-name="Group 41">
                    <path id="Path_53" data-name="Path 53" d="M312.571-335.279l.406.107a1.5,1.5,0,0,1,.425.139,2.138,2.138,0,0,1,.494.232,3.088,3.088,0,0,1,1.6,2.253,2.035,2.035,0,0,0,.11-1.738A2.088,2.088,0,0,0,312.571-335.279Z" fill="#74bbc0"/>
                  </g>
                  <g id="Group_42" data-name="Group 42">
                    <path id="Path_54" data-name="Path 54" d="M347.666-354.294a3.878,3.878,0,0,0-.327.3,2.928,2.928,0,0,0-.612,1,3.363,3.363,0,0,0-.2,1.656,2.221,2.221,0,0,0,1.042,1.6l-.147-.46a4.086,4.086,0,0,1-.088-1.088C347.357-352.163,347.56-353.139,347.666-354.294Z" fill="#74bbc0"/>
                  </g>
                  <g id="Group_43" data-name="Group 43">
                    <path id="Path_55" data-name="Path 55" d="M342.388-363.36a2.529,2.529,0,0,0-.141.31,2.056,2.056,0,0,0-.141.9,1.749,1.749,0,0,0,.588,1.233,1.793,1.793,0,0,0,1.435.4l-.269-.269a3.3,3.3,0,0,1-.535-.628C342.97-361.881,342.872-362.506,342.388-363.36Z" fill="#74bbc0"/>
                  </g>
                </g>
              </g>
              <g id="Group_50" data-name="Group 50">
                <path id="Path_56" data-name="Path 56" d="M339.945-344.2s1.679.056,2.005-1.267.275-8.144-1.193-9.81-6.713,1.157-6.713,1.157-3.927-6.557-7.82-8.206-13.482,18.176-12.452,21.1,10.221,7.316,15.149,4.755C328.921-336.472,338.126-335.952,339.945-344.2Z" fill="#151d2b"/>
                <g id="Group_47" data-name="Group 47">
                  <path id="Path_57" data-name="Path 57" d="M332.546-354.024s-5.132-6.488-7.147-6.716-11.008,14.957-10.121,18.314,9.426,4.945,11.76,4.951S332.546-354.024,332.546-354.024Z" fill="#ff6957"/>
                  <g id="Group_46" data-name="Group 46" clip-path="url(#clip-path-3)">
                    <path id="Path_58" data-name="Path 58" d="M330.6-354.588s-4.016-5.078-5.593-5.257-8.615,11.706-7.92,14.333,7.376,3.868,9.2,3.873S330.6-354.588,330.6-354.588Z" fill="#ff8f87"/>
                    <path id="Path_59" data-name="Path 59" d="M317.535-343.27c-1.125-1.859-2.593-3.445-3.858-5.2-.131-.183.112-.348.273-.24,3.319,2.216,6.694,6.879,7.4,10.841.069.386-.465.5-.668.234C319.394-339.34,318.648-341.431,317.535-343.27Z" fill="#ffd7d6"/>
                    <path id="Path_60" data-name="Path 60" d="M315.588-353.3c2.953.3,5.342,2.765,7.4,4.7,2.573,2.421,5.621,5.144,6.889,8.5.18.477-.491,1-.865.587-2.364-2.643-4.441-5.466-7.076-7.885a79.747,79.747,0,0,0-6.8-4.987C314.676-352.722,315.112-353.348,315.588-353.3Z" fill="#ffd7d6"/>
                    <path id="Path_61" data-name="Path 61" d="M319.678-357.864c2.921.36,5,2.11,7.053,4.108,2.128,2.07,4.556,4.48,5.861,7.16.132.27-.253.477-.454.308-2.032-1.7-3.489-4.074-5.35-5.973-2.1-2.146-4.761-3.5-7.3-5.036A.3.3,0,0,1,319.678-357.864Z" fill="#ffd7d6"/>
                    <path id="Path_62" data-name="Path 62" d="M323.852-359.882a48.946,48.946,0,0,1,5.836,1.51c1.647.609,3.851,1.816,4.8,3.339a.407.407,0,0,1-.409.622c-1.837-.249-3.406-1.809-5.031-2.663-1.716-.9-3.611-1.47-5.363-2.308A.267.267,0,0,1,323.852-359.882Z" fill="#ffd7d6"/>
                  </g>
                </g>
                <g id="Group_48" data-name="Group 48">
                  <path id="Path_64" data-name="Path 64" d="M339.311-354.159s-4.364.255-5.252,1.275-1.52,6.28-1.52,6.28l8.293,1.146S340.436-353.284,339.311-354.159Z" fill="#dfcd27"/>
                  <path id="Path_65" data-name="Path 65" d="M337.927-353.821s-3.153.185-3.794.921-1.1,4.538-1.1,4.538l5.99.828S338.74-353.189,337.927-353.821Z" fill="#fff03e"/>
                </g>
                <g id="Group_49" data-name="Group 49">
                  <path id="Path_66" data-name="Path 66" d="M332.245-344.5s-2.458,4.742-2.333,6.307c2.024.656,5.929-1.163,8.47-5.655C338.381-343.851,333.472-345.095,332.245-344.5Z" fill="#e1c242"/>
                  <path id="Path_67" data-name="Path 67" d="M332.873-344.547s-1.986,3.833-1.886,5.1c1.637.529,4.793-.941,6.846-4.572C337.833-344.02,333.865-345.024,332.873-344.547Z" fill="#ffea96"/>
                </g>
              </g>
            </g>
          </g>
        </g>
        <g id="Group_117" data-name="Group 117">
          <g id="Group_74" data-name="Group 74">
            <ellipse id="Ellipse_7" data-name="Ellipse 7" cx="26.648" cy="26.621" rx="26.648" ry="26.621" transform="translate(182.269 -323.58)" fill="#190f0f"/>
            <g id="Group_73" data-name="Group 73">
              <g id="Group_55" data-name="Group 55">
                <ellipse id="Ellipse_8" data-name="Ellipse 8" cx="25.754" cy="25.728" rx="25.754" ry="25.728" transform="translate(181.621 -320.913)" fill="#151d2b"/>
                <g id="Group_54" data-name="Group 54">
                  <path id="Path_68" data-name="Path 68" d="M199.12-316.58s4.666-5.423,9.66-1.527c0,0,4.9-2.647,7.666,2.33,0,0,3.322-2.711,5.127,2.105,0,0,4.609-.519,4.936,4.843,0,0,5.363,2.277,3.9,7.506,0,0,3.673,4.1.665,7.5,0,0,2.832,3.405-.822,5.337,0,0,1.425,5.711-3.579,7.022,0,0-.482,4.866-4.592,4.577,0,0-.925,5.353-6.561,3.328a5.085,5.085,0,0,1-7.693,2.1s-4.242,2.178-7.01-.82c0,0-5.084.8-5.936-2.6,0,0-5.009-.042-5.92-4.48,0,0-4.272-1.3-3.272-5.523a5.557,5.557,0,0,1-2.179-6.528s-2.978-4.319.64-7.806c0,0-2.693-5.822,3.2-8.106,0,0-.762-4.805,3.863-5.223C191.21-312.551,191.332-318.37,199.12-316.58Z" fill="#bbe1e7"/>
                  <path id="Path_69" data-name="Path 69" d="M199.283-314.608s4.194-4.876,8.684-1.372c0,0,4.4-2.38,6.892,2.094,0,0,2.988-2.438,4.61,1.893,0,0,4.143-.467,4.437,4.354,0,0,4.822,2.046,3.505,6.748,0,0,3.3,3.691.6,6.74,0,0,2.546,3.061-.741,4.8,0,0,1.282,5.133-3.217,6.312,0,0-.432,4.374-4.127,4.116,0,0-.832,4.811-5.9,2.991a4.572,4.572,0,0,1-6.916,1.89s-3.814,1.959-6.3-.738c0,0-4.571.721-5.336-2.34,0,0-4.5-.038-5.324-4.027,0,0-3.84-1.173-2.941-4.966a5,5,0,0,1-1.959-5.87s-2.677-3.883.575-7.018c0,0-2.421-5.234,2.877-7.288,0,0-.685-4.319,3.472-4.7C192.17-310.984,192.28-316.216,199.283-314.608Z" fill="#fff"/>
                </g>
              </g>
              <g id="Group_60" data-name="Group 60">
                <g id="Group_57" data-name="Group 57">
                  <path id="Path_70" data-name="Path 70" d="M205.829-300.9c.625.042,9.6,5.982,10.689,8.932s-1.8,9.032-3.142,9.451-10.23.888-13.362-1.116-9.133-6.992-8.791-9.441S201.193-301.209,205.829-300.9Z" fill="#ff9b0d"/>
                  <g id="Group_56" data-name="Group 56" clip-path="url(#clip-path-4)">
                    <path id="Path_71" data-name="Path 71" d="M203.3-298.928c.468.031,7.178,4.472,7.994,6.679s-1.347,6.754-2.349,7.068-7.651.662-9.992-.836-6.83-5.228-6.574-7.06S199.835-299.16,203.3-298.928Z" fill="#ffb14d"/>
                    <path id="Path_72" data-name="Path 72" d="M201.605-281.022c1.379-5.207,11.292-6.432,15.548-5.17.48.142.284.829-.175.818a33.159,33.159,0,0,0-7.531.245c-3.232.649-5.092,2.3-7.493,4.35A.222.222,0,0,1,201.605-281.022Z" fill="#ffdbb2"/>
                    <path id="Path_73" data-name="Path 73" d="M198.849-283.388c1.668-6.729,10.393-12.272,17.138-11.276a.4.4,0,0,1,.036.782c-3.816,1.029-6.974,1.019-10.4,3.367-2.853,1.957-4.285,4.716-6.258,7.393A.3.3,0,0,1,198.849-283.388Z" fill="#ffdbb2"/>
                    <path id="Path_74" data-name="Path 74" d="M194.373-285.96c.838-6.871,8.452-14.627,15.619-14.484.47.01.467.606.143.8-2.952,1.811-6.223,2.326-9.079,4.509a17.918,17.918,0,0,0-6.292,9.254A.2.2,0,0,1,194.373-285.96Z" fill="#ffdbb2"/>
                    <path id="Path_75" data-name="Path 75" d="M191.938-288.271c-.047-4.37.967-10.724,5.7-12.482a.287.287,0,0,1,.353.421c-1.135,1.966-2.761,3.5-3.731,5.593a31.97,31.97,0,0,0-1.822,6.574C192.367-287.861,191.942-288,191.938-288.271Z" fill="#ffdbb2"/>
                  </g>
                </g>
                <g id="Group_58" data-name="Group 58">
                  <path id="Path_77" data-name="Path 77" d="M206.506-301.128s-10.029,3.145-10.736,2.632c-.426-.31-2.6-3.138-1.144-5.3.953-1.418,5.331-2.422,6.239-2.689C203.154-307.16,207.148-303,206.506-301.128Z" fill="#e0c142"/>
                  <path id="Path_78" data-name="Path 78" d="M203.839-301.225s-7.826,2.454-8.378,2.055c-.333-.242-2.026-2.449-.893-4.137.742-1.108,4.159-1.89,4.868-2.1C201.223-305.931,204.34-302.686,203.839-301.225Z" fill="#ffd93e"/>
                </g>
                <g id="Group_59" data-name="Group 59">
                  <path id="Path_79" data-name="Path 79" d="M206.99-301.025c-1.024-1.712,3.448-6.285,6.1-5.35s8.411,10.1,8.411,10.1-3.547,4.589-4.157,4.025S208.058-299.238,206.99-301.025Z" fill="#a79960"/>
                  <path id="Path_80" data-name="Path 80" d="M207.639-300.91c-.786-1.315,2.648-4.829,4.684-4.111s6.462,7.757,6.462,7.757-2.725,3.525-3.194,3.092S208.459-299.537,207.639-300.91Z" fill="#d6cc9d"/>
                </g>
              </g>
              <g id="Group_72" data-name="Group 72">
                <g id="Group_61" data-name="Group 61">
                  <path id="Path_81" data-name="Path 81" d="M225.966-301.056a4.686,4.686,0,0,0-.348.324,3.145,3.145,0,0,0-.694,1.066,2.658,2.658,0,0,0-.086,1.89,2.205,2.205,0,0,0,1.6,1.371,4.056,4.056,0,0,1-.7-1.5A14.652,14.652,0,0,1,225.966-301.056Z" fill="#74bbc0"/>
                </g>
                <g id="Group_62" data-name="Group 62">
                  <path id="Path_82" data-name="Path 82" d="M219.694-310.353a2.443,2.443,0,0,0,.168,2.221,4.319,4.319,0,0,0,4.219,2.047l-.6-.29a12.031,12.031,0,0,1-1.328-.846A5.6,5.6,0,0,1,219.694-310.353Z" fill="#74bbc0"/>
                </g>
                <g id="Group_63" data-name="Group 63">
                  <path id="Path_83" data-name="Path 83" d="M219.909-304.546a1.855,1.855,0,0,0-.193,1.046,1.791,1.791,0,0,0,1.517,1.579c.015-.018-.156-.512-.307-1.021A3.6,3.6,0,0,0,219.909-304.546Z" fill="#74bbc0"/>
                </g>
                <g id="Group_64" data-name="Group 64">
                  <path id="Path_84" data-name="Path 84" d="M209.795-310.431s.059.2.2.535a4.494,4.494,0,0,0,.8,1.3,3.727,3.727,0,0,0,1.87,1.2,3.737,3.737,0,0,0,2.472-.241l-.622-.127a3.423,3.423,0,0,1-.654-.162,3.529,3.529,0,0,1-.762-.269A19.662,19.662,0,0,1,209.795-310.431Z" fill="#74bbc0"/>
                </g>
                <g id="Group_65" data-name="Group 65">
                  <path id="Path_85" data-name="Path 85" d="M211.761-279.522a.547.547,0,0,1,.079-.517A5.69,5.69,0,0,1,213-281.144a8,8,0,0,1,1.887-1.105,10.434,10.434,0,0,1,1.221-.333c.446-.072.916-.126,1.4-.234a6.341,6.341,0,0,0-2.648-.363,10.62,10.62,0,0,0-1.243.407,12.642,12.642,0,0,0-1.093.854,4.593,4.593,0,0,0-.8,1.11C211.511-280.437,211.347-279.748,211.761-279.522Z" fill="#74bbc0"/>
                </g>
                <g id="Group_66" data-name="Group 66">
                  <path id="Path_86" data-name="Path 86" d="M225.271-288.887a2.322,2.322,0,0,0-1.452.694,2.831,2.831,0,0,0-.28,3.349s.246-.842.448-1.533A8.8,8.8,0,0,1,225.271-288.887Z" fill="#74bbc0"/>
                </g>
                <g id="Group_67" data-name="Group 67">
                  <path id="Path_87" data-name="Path 87" d="M193.987-284.469a2.916,2.916,0,0,1,1.882-.128,3.294,3.294,0,0,1,2.79,2.53,2.1,2.1,0,0,0,.183-.638,2.2,2.2,0,0,0-.564-1.682,3.134,3.134,0,0,0-2.13-1.072A2.186,2.186,0,0,0,193.987-284.469Z" fill="#74bbc0"/>
                </g>
                <g id="Group_68" data-name="Group 68">
                  <path id="Path_88" data-name="Path 88" d="M186.827-293.568a3.19,3.19,0,0,1,1,1.5,6.222,6.222,0,0,1,.365,1.728,2.14,2.14,0,0,1-.683,1.822,1.659,1.659,0,0,0,.6-.186,2,2,0,0,0,.943-1.4,3.231,3.231,0,0,0-.357-2.208A2.161,2.161,0,0,0,186.827-293.568Z" fill="#74bbc0"/>
                </g>
                <g id="Group_69" data-name="Group 69">
                  <path id="Path_89" data-name="Path 89" d="M194.173-309.784a6.155,6.155,0,0,1,.07.793,7.136,7.136,0,0,1-.194,2c-.374,1.555-1.37,3.69-3.822,3.964a4.087,4.087,0,0,0,.9.136,3.25,3.25,0,0,0,2.256-.847A4.739,4.739,0,0,0,194.173-309.784Z" fill="#74bbc0"/>
                </g>
                <g id="Group_70" data-name="Group 70">
                  <path id="Path_90" data-name="Path 90" d="M198.239-313.551a3.38,3.38,0,0,0,1.417.559,2.939,2.939,0,0,0,1.627-.162,1.623,1.623,0,0,0,.972-1.629l-.326.338a1.71,1.71,0,0,1-.862.412A16.445,16.445,0,0,0,198.239-313.551Z" fill="#74bbc0"/>
                </g>
                <g id="Group_71" data-name="Group 71">
                  <path id="Path_91" data-name="Path 91" d="M207.787-312.949a2.035,2.035,0,0,0,.085.608,2.522,2.522,0,0,0,1.009,1.314,3.858,3.858,0,0,0,2.217.673,2.709,2.709,0,0,0,2.309-1.156,3.286,3.286,0,0,1-.609.221,4.144,4.144,0,0,1-1.5.051,7.093,7.093,0,0,1-1.842-.492A3.709,3.709,0,0,1,207.787-312.949Z" fill="#74bbc0"/>
                </g>
              </g>
            </g>
          </g>
          <g id="Group_95" data-name="Group 95">
            <ellipse id="Ellipse_9" data-name="Ellipse 9" cx="26.648" cy="26.621" rx="26.648" ry="26.621" transform="translate(239.964 -336.412)" fill="#190f0f"/>
            <g id="Group_94" data-name="Group 94">
              <g id="Group_76" data-name="Group 76">
                <ellipse id="Ellipse_10" data-name="Ellipse 10" cx="25.754" cy="25.728" rx="25.754" ry="25.728" transform="translate(240.14 -331.774)" fill="#151d2b"/>
                <g id="Group_75" data-name="Group 75">
                  <path id="Path_92" data-name="Path 92" d="M244.742-314.948s-.673-7.119,5.6-8.01c0,0,1.488-5.36,7-3.9,0,0,.351-4.272,5.076-2.23,0,0,2.822-3.675,6.916-.191,0,0,5.362-2.279,8.115,2.4,0,0,5.508.206,5.867,4.721,0,0,4.419.324,3.275,4.295,0,0,5.105,2.935,2.579,7.446,0,0,3.175,3.721.116,6.479,0,0,3.217,4.378-2.153,7.029a5.077,5.077,0,0,1-3.821,6.993s-1.372,4.562-5.455,4.473c0,0-2.948,4.216-5.994,2.466,0,0-3.505,3.576-7.336,1.153,0,0-3.9,2.168-6.252-1.478a5.57,5.57,0,0,1-6.219-2.96s-5.179-.855-5.183-5.877c0,0-6.067-2.1-3.626-7.924,0,0-3.992-2.785-1.085-6.4C242.16-306.462,238.049-310.587,244.742-314.948Z" fill="#bbe1e7"/>
                  <path id="Path_93" data-name="Path 93" d="M246.278-313.7s-.6-6.4,5.036-7.2c0,0,1.337-4.819,6.29-3.505,0,0,.315-3.841,4.563-2,0,0,2.537-3.305,6.218-.173,0,0,4.82-2.049,7.3,2.161,0,0,4.951.185,5.273,4.244,0,0,3.974.292,2.946,3.86,0,0,4.59,2.641,2.319,6.695,0,0,2.854,3.346.1,5.825,0,0,2.891,3.937-1.936,6.32a4.565,4.565,0,0,1-3.436,6.288s-1.233,4.1-4.9,4.022c0,0-2.651,3.79-5.389,2.216,0,0-3.151,3.215-6.6,1.036,0,0-3.51,1.95-5.621-1.328a5.006,5.006,0,0,1-5.59-2.66s-4.657-.768-4.661-5.284c0,0-5.453-1.888-3.259-7.125,0,0-3.589-2.5-.977-5.756C243.956-306.067,240.26-309.776,246.278-313.7Z" fill="#fff"/>
                </g>
              </g>
              <g id="Group_81" data-name="Group 81">
                <g id="Group_78" data-name="Group 78">
                  <path id="Path_94" data-name="Path 94" d="M260.7-308.9c.463-.421,10.97-2.757,13.855-1.495s5.262,7.561,4.635,8.817-6.457,7.976-10.074,8.838-11.377,1.721-12.906-.224S257.264-305.777,260.7-308.9Z" fill="#ff9b0d"/>
                  <g id="Group_77" data-name="Group 77" clip-path="url(#clip-path-5)">
                    <path id="Path_95" data-name="Path 95" d="M260.369-305.712c.347-.315,8.2-2.061,10.362-1.117s3.935,5.654,3.466,6.594-4.83,5.965-7.535,6.61-8.507,1.286-9.65-.168S257.8-303.378,260.369-305.712Z" fill="#ffb14d"/>
                    <path id="Path_96" data-name="Path 96" d="M272.1-292.069c-2.8-4.6,3.2-12.587,7.058-14.773.436-.247.8.371.469.693a33.051,33.051,0,0,0-5.048,5.59c-1.774,2.775-1.872,5.262-2.062,8.409A.222.222,0,0,1,272.1-292.069Z" fill="#ffdbb2"/>
                    <path id="Path_97" data-name="Path 97" d="M268.485-291.728c-3.694-5.867-1.637-15.991,3.759-20.151a.4.4,0,0,1,.589.516c-1.906,3.46-4.1,5.725-4.785,9.816-.568,3.41.427,6.356.989,9.631A.3.3,0,0,1,268.485-291.728Z" fill="#ffdbb2"/>
                    <path id="Path_98" data-name="Path 98" d="M263.524-290.291c-4.371-5.371-4.68-16.229.4-21.287.333-.332.759.085.678.455-.742,3.381-2.64,6.092-3.047,9.661a17.9,17.9,0,0,0,2.306,10.946A.2.2,0,0,1,263.524-290.291Z" fill="#ffdbb2"/>
                    <path id="Path_99" data-name="Path 99" d="M260.171-290.143c-3.184-3-7.062-8.135-5.046-12.759a.287.287,0,0,1,.548.038c.631,2.181.61,4.415,1.445,6.565a32.029,32.029,0,0,0,3.475,5.871C260.764-290.166,260.367-289.958,260.171-290.143Z" fill="#ffdbb2"/>
                  </g>
                </g>
                <g id="Group_79" data-name="Group 79">
                  <path id="Path_101" data-name="Path 101" d="M261.006-309.544s-4.689,9.4-5.55,9.551c-.519.092-4.063-.31-4.615-2.854-.362-1.669,1.952-5.514,2.389-6.353C254.333-311.315,260.1-311.3,261.006-309.544Z" fill="#e0c142"/>
                  <path id="Path_102" data-name="Path 102" d="M259.087-307.691s-3.659,7.335-4.331,7.453c-.4.072-3.172-.242-3.6-2.227-.283-1.3,1.522-4.3,1.864-4.958C253.879-309.074,258.381-309.065,259.087-307.691Z" fill="#ffd93e"/>
                </g>
                <g id="Group_80" data-name="Group 80">
                  <path id="Path_103" data-name="Path 103" d="M261.417-309.82c-1.945-.451-2.14-6.841.373-8.1s13.114.952,13.114.952.848,5.736.017,5.783S263.447-309.348,261.417-309.82Z" fill="#a79960"/>
                  <path id="Path_104" data-name="Path 104" d="M261.95-310.207c-1.494-.347-1.645-5.255.286-6.222s10.075.731,10.075.731.652,4.407.014,4.443S263.508-309.845,261.95-310.207Z" fill="#d6cc9d"/>
                </g>
              </g>
              <g id="Group_93" data-name="Group 93">
                <g id="Group_82" data-name="Group 82">
                  <path id="Path_105" data-name="Path 105" d="M274.559-323.494a4.466,4.466,0,0,0-.009.475,3.148,3.148,0,0,0,.288,1.24,2.657,2.657,0,0,0,1.3,1.372,2.2,2.2,0,0,0,2.1-.2,4.057,4.057,0,0,1-1.572-.538A14.6,14.6,0,0,1,274.559-323.494Z" fill="#74bbc0"/>
                </g>
                <g id="Group_83" data-name="Group 83">
                  <path id="Path_106" data-name="Path 106" d="M263.5-325.432a2.445,2.445,0,0,0,1.717,1.42,4.321,4.321,0,0,0,4.4-1.613L269-325.4a12.3,12.3,0,0,1-1.533.37A5.619,5.619,0,0,1,263.5-325.432Z" fill="#74bbc0"/>
                </g>
                <g id="Group_84" data-name="Group 84">
                  <path id="Path_107" data-name="Path 107" d="M267.841-321.558a1.856,1.856,0,0,0,.62.863,1.794,1.794,0,0,0,2.191,0c0-.022-.477-.242-.949-.486A3.6,3.6,0,0,0,267.841-321.558Z" fill="#74bbc0"/>
                </g>
                <g id="Group_85" data-name="Group 85">
                  <path id="Path_108" data-name="Path 108" d="M256.581-318.364s.184.095.522.231a4.47,4.47,0,0,0,1.488.327,3.735,3.735,0,0,0,2.163-.512,3.739,3.739,0,0,0,1.542-1.946l-.523.36a3.389,3.389,0,0,1-.57.358,3.492,3.492,0,0,1-.722.361A19.535,19.535,0,0,1,256.581-318.364Z" fill="#74bbc0"/>
                </g>
                <g id="Group_86" data-name="Group 86">
                  <path id="Path_109" data-name="Path 109" d="M280.23-298.336a.543.543,0,0,1-.317-.416,5.675,5.675,0,0,1,0-1.6,8.023,8.023,0,0,1,.512-2.123,10.139,10.139,0,0,1,.607-1.11c.257-.371.544-.746.8-1.168a6.32,6.32,0,0,0-2.1,1.654,10.89,10.89,0,0,0-.569,1.177,12.709,12.709,0,0,0-.142,1.379,4.6,4.6,0,0,0,.243,1.348C279.4-298.791,279.779-298.194,280.23-298.336Z" fill="#74bbc0"/>
                </g>
                <g id="Group_87" data-name="Group 87">
                  <path id="Path_110" data-name="Path 110" d="M282.85-314.554a2.33,2.33,0,0,0-.507,1.527,2.834,2.834,0,0,0,2.22,2.525l-.794-1.386A8.827,8.827,0,0,1,282.85-314.554Z" fill="#74bbc0"/>
                </g>
                <g id="Group_88" data-name="Group 88">
                  <path id="Path_111" data-name="Path 111" d="M264.332-288.978a2.909,2.909,0,0,1,1.214-1.443,3.3,3.3,0,0,1,3.759-.253,2.119,2.119,0,0,0-.333-.574,2.2,2.2,0,0,0-1.6-.761,3.135,3.135,0,0,0-2.251.788A2.186,2.186,0,0,0,264.332-288.978Z" fill="#74bbc0"/>
                </g>
                <g id="Group_89" data-name="Group 89">
                  <path id="Path_112" data-name="Path 112" d="M252.805-290.139a3.2,3.2,0,0,1,1.772.322,6.2,6.2,0,0,1,1.5.936,2.137,2.137,0,0,1,.841,1.755,1.669,1.669,0,0,0,.285-.564,2.008,2.008,0,0,0-.357-1.651,3.238,3.238,0,0,0-1.84-1.275A2.163,2.163,0,0,0,252.805-290.139Z" fill="#74bbc0"/>
                </g>
                <g id="Group_90" data-name="Group 90">
                  <path id="Path_113" data-name="Path 113" d="M246.211-306.675a6.319,6.319,0,0,1,.62.5,7.194,7.194,0,0,1,1.31,1.528c.861,1.348,1.709,3.546.2,5.5a4.033,4.033,0,0,0,.726-.556,3.254,3.254,0,0,0,.954-2.21A4.745,4.745,0,0,0,246.211-306.675Z" fill="#74bbc0"/>
                </g>
                <g id="Group_91" data-name="Group 91">
                  <path id="Path_114" data-name="Path 114" d="M246.315-312.214a3.356,3.356,0,0,0,1.386-.631,2.938,2.938,0,0,0,1.012-1.283,1.624,1.624,0,0,0-.5-1.829l.016.469a1.7,1.7,0,0,1-.3.905A16.534,16.534,0,0,0,246.315-312.214Z" fill="#74bbc0"/>
                </g>
                <g id="Group_92" data-name="Group 92">
                  <path id="Path_115" data-name="Path 115" d="M253.373-318.666a2,2,0,0,0,.5.36,2.528,2.528,0,0,0,1.647.186,3.861,3.861,0,0,0,2.024-1.129,2.7,2.7,0,0,0,.768-2.463,3.269,3.269,0,0,1-.263.591,4.125,4.125,0,0,1-1,1.111,7.006,7.006,0,0,1-1.635.984A3.7,3.7,0,0,1,253.373-318.666Z" fill="#74bbc0"/>
                </g>
              </g>
            </g>
          </g>
          <g id="Group_116" data-name="Group 116">
            <ellipse id="Ellipse_11" data-name="Ellipse 11" cx="26.648" cy="26.621" rx="26.648" ry="26.621" transform="translate(296.6 -322.877)" fill="#190f0f"/>
            <g id="Group_115" data-name="Group 115">
              <g id="Group_97" data-name="Group 97">
                <ellipse id="Ellipse_12" data-name="Ellipse 12" cx="23.726" cy="23.702" rx="23.726" ry="23.702" transform="translate(298.684 -317.274)" fill="#151d2b"/>
                <g id="Group_96" data-name="Group 96">
                  <path id="Path_116" data-name="Path 116" d="M309.3-310.148s2.625-6.044,8.084-3.976c0,0,3.585-3.664,7.381-.039,0,0,2.183-3.292,5.087.455,0,0,3.914-1.713,5.667,2.916,0,0,5.341.541,5.48,5.543,0,0,4.352,2.611,2.632,6.415,0,0,3.422,2.224.733,4.92,0,0,2.814,4.636-1.231,7.154,0,0,.906,4.413-2.79,5.28,0,0,.648,4.962-4.864,4.716a4.682,4.682,0,0,1-6.2,3.947s-3.137,3.072-6.392,1.188c0,0-4.255,2.093-5.934-.672,0,0-4.42,1.33-6.434-2.327,0,0-4.115.017-4.388-3.968a5.124,5.124,0,0,1-3.7-5.149s-3.8-2.99-1.569-7.044c0,0-3.961-4.39.6-8.006,0,0-1.982-4.02,1.973-5.648C303.443-304.445,301.962-309.6,309.3-310.148Z" fill="#bbe1e7"/>
                  <path id="Path_117" data-name="Path 117" d="M309.984-308.456s2.361-5.434,7.268-3.576c0,0,3.224-3.294,6.636-.036,0,0,1.963-2.959,4.573.409,0,0,3.519-1.54,5.1,2.622,0,0,4.8.486,4.926,4.983,0,0,3.914,2.347,2.368,5.767,0,0,3.077,2,.659,4.423,0,0,2.53,4.168-1.107,6.432,0,0,.815,3.967-2.507,4.746,0,0,.583,4.461-4.374,4.24a4.209,4.209,0,0,1-5.569,3.548s-2.821,2.763-5.747,1.068c0,0-3.825,1.882-5.335-.6,0,0-3.974,1.194-5.784-2.093,0,0-3.7.016-3.945-3.567a4.608,4.608,0,0,1-3.327-4.63s-3.415-2.688-1.41-6.333c0,0-3.561-3.946.54-7.2,0,0-1.783-3.615,1.773-5.079C304.716-303.33,303.384-307.964,309.984-308.456Z" fill="#fff"/>
                </g>
              </g>
              <g id="Group_102" data-name="Group 102">
                <g id="Group_99" data-name="Group 99">
                  <path id="Path_118" data-name="Path 118" d="M319.49-298.178c.561-.134,10.078,2.647,11.846,4.946s.882,8.438-.184,9.173-8.76,3.569-12.062,2.659-9.946-3.662-10.314-5.91S315.327-297.187,319.49-298.178Z" fill="#ff9b0d"/>
                  <g id="Group_98" data-name="Group 98" clip-path="url(#clip-path-6)">
                    <path id="Path_119" data-name="Path 119" d="M317.8-295.755c.42-.1,7.537,1.978,8.86,3.7s.658,6.31-.138,6.86-6.55,2.669-9.02,1.988-7.437-2.738-7.713-4.419S314.691-295.013,317.8-295.755Z" fill="#ffb14d"/>
                    <path id="Path_120" data-name="Path 120" d="M321.2-279.536c-.209-4.958,8.181-8.738,12.27-8.788.462-.006.475.651.069.767a30.524,30.524,0,0,0-6.56,2.269c-2.668,1.452-3.852,3.414-5.406,5.87A.2.2,0,0,1,321.2-279.536Z" fill="#ffdbb2"/>
                    <path id="Path_121" data-name="Path 121" d="M318.132-280.867c-.37-6.375,5.793-13.631,12-14.592a.365.365,0,0,1,.246.677c-3.078,1.945-5.86,2.8-8.23,5.8-1.975,2.5-2.482,5.318-3.487,8.212A.272.272,0,0,1,318.132-280.867Z" fill="#ffdbb2"/>
                    <path id="Path_122" data-name="Path 122" d="M313.49-281.91c-1.138-6.275,3.442-15.175,9.788-17,.417-.12.577.406.346.668-2.1,2.4-4.841,3.743-6.758,6.443a16.494,16.494,0,0,0-3.008,9.857A.187.187,0,0,1,313.49-281.91Z" fill="#ffdbb2"/>
                    <path id="Path_123" data-name="Path 123" d="M310.717-283.279c-1.236-3.832-2.078-9.7,1.6-12.537a.265.265,0,0,1,.426.275c-.462,2.039-1.473,3.833-1.756,5.939a29.439,29.439,0,0,0,.193,6.282C311.206-283.035,310.793-283.043,310.717-283.279Z" fill="#ffdbb2"/>
                  </g>
                </g>
                <g id="Group_100" data-name="Group 100">
                  <path id="Path_125" data-name="Path 125" d="M320.023-298.564s-7.967,5.5-8.729,5.243c-.459-.157-3.141-2.054-2.454-4.353.451-1.507,4.029-3.583,4.755-4.066C315.425-302.958,320.076-300.386,320.023-298.564Z" fill="#e0c142"/>
                  <path id="Path_126" data-name="Path 126" d="M317.65-297.923s-6.218,4.295-6.811,4.092c-.359-.122-2.452-1.6-1.916-3.4.352-1.177,3.145-2.8,3.71-3.173C314.062-301.35,317.691-299.344,317.65-297.923Z" fill="#ffd93e"/>
                </g>
                <g id="Group_101" data-name="Group 101">
                  <path id="Path_127" data-name="Path 127" d="M320.478-298.6c-1.369-1.227,1.317-6.472,3.9-6.37s10.16,6.591,10.16,6.591-1.868,5.005-2.559,4.674S321.9-297.323,320.478-298.6Z" fill="#a79960"/>
                  <path id="Path_128" data-name="Path 128" d="M321.079-298.68c-1.051-.944,1.012-4.972,3-4.9s7.8,5.064,7.8,5.064-1.435,3.844-1.965,3.592S322.176-297.7,321.079-298.68Z" fill="#d6cc9d"/>
                </g>
              </g>
              <g id="Group_114" data-name="Group 114">
                <g id="Group_103" data-name="Group 103">
                  <path id="Path_129" data-name="Path 129" d="M337.167-303.8a4.154,4.154,0,0,0-.219.38,2.9,2.9,0,0,0-.32,1.127,2.446,2.446,0,0,0,.441,1.686,2.032,2.032,0,0,0,1.782.771,3.727,3.727,0,0,1-1.03-1.132A13.465,13.465,0,0,1,337.167-303.8Z" fill="#74bbc0"/>
                </g>
                <g id="Group_104" data-name="Group 104">
                  <path id="Path_130" data-name="Path 130" d="M329.108-310.276a2.253,2.253,0,0,0,.754,1.908,3.982,3.982,0,0,0,4.272.652l-.6-.092a11.431,11.431,0,0,1-1.4-.382A5.169,5.169,0,0,1,329.108-310.276Z" fill="#74bbc0"/>
                </g>
                <g id="Group_105" data-name="Group 105">
                  <path id="Path_131" data-name="Path 131" d="M330.883-305.226a1.717,1.717,0,0,0,.116.973,1.652,1.652,0,0,0,1.767.976c.007-.02-.277-.407-.549-.814A3.325,3.325,0,0,0,330.883-305.226Z" fill="#74bbc0"/>
                </g>
                <g id="Group_106" data-name="Group 106">
                  <path id="Path_132" data-name="Path 132" d="M320.375-307.647s.106.158.319.418a4.175,4.175,0,0,0,1.056.925,3.449,3.449,0,0,0,1.974.546,3.447,3.447,0,0,0,2.11-.887l-.583.059a3.165,3.165,0,0,1-.62.036,3.193,3.193,0,0,1-.743-.03A18.049,18.049,0,0,1,320.375-307.647Z" fill="#74bbc0"/>
                </g>
                <g id="Group_107" data-name="Group 107">
                  <path id="Path_133" data-name="Path 133" d="M330.548-280.985a.507.507,0,0,1-.07-.476,5.2,5.2,0,0,1,.715-1.289,7.462,7.462,0,0,1,1.358-1.485,9.334,9.334,0,0,1,.984-.627c.373-.185.772-.36,1.165-.587a5.837,5.837,0,0,0-2.429.4,10.033,10.033,0,0,0-.983.7,11.729,11.729,0,0,0-.728,1.051,4.213,4.213,0,0,0-.4,1.2C330.078-281.723,330.122-281.07,330.548-280.985Z" fill="#74bbc0"/>
                </g>
                <g id="Group_108" data-name="Group 108">
                  <path id="Path_134" data-name="Path 134" d="M339.878-292.908a2.137,2.137,0,0,0-1.088,1.006,2.607,2.607,0,0,0,.668,3.023l-.025-1.471A8.144,8.144,0,0,1,339.878-292.908Z" fill="#74bbc0"/>
                </g>
                <g id="Group_109" data-name="Group 109">
                  <path id="Path_135" data-name="Path 135" d="M313.556-280.493a2.684,2.684,0,0,1,1.622-.625,3.037,3.037,0,0,1,3.146,1.465,1.974,1.974,0,0,0-.015-.611,2.023,2.023,0,0,0-.956-1.327,2.9,2.9,0,0,0-2.167-.363A2.016,2.016,0,0,0,313.556-280.493Z" fill="#74bbc0"/>
                </g>
                <g id="Group_110" data-name="Group 110">
                  <path id="Path_136" data-name="Path 136" d="M304.772-286.547a2.947,2.947,0,0,1,1.286,1.047,5.754,5.754,0,0,1,.793,1.421,1.97,1.97,0,0,1-.1,1.79,1.546,1.546,0,0,0,.48-.328,1.845,1.845,0,0,0,.447-1.492,2.975,2.975,0,0,0-.917-1.845A1.991,1.991,0,0,0,304.772-286.547Z" fill="#74bbc0"/>
                </g>
                <g id="Group_111" data-name="Group 111">
                  <path id="Path_137" data-name="Path 137" d="M306.807-302.819a5.76,5.76,0,0,1,.279.68,6.652,6.652,0,0,1,.377,1.814c.1,1.47-.2,3.62-2.282,4.529a3.757,3.757,0,0,0,.833-.127,2.991,2.991,0,0,0,1.753-1.359A4.368,4.368,0,0,0,306.807-302.819Z" fill="#74bbc0"/>
                </g>
                <g id="Group_112" data-name="Group 112">
                  <path id="Path_138" data-name="Path 138" d="M309.355-307.242a3.1,3.1,0,0,0,1.4.106,2.707,2.707,0,0,0,1.388-.586,1.5,1.5,0,0,0,.41-1.7l-.194.385a1.578,1.578,0,0,1-.646.6A15.32,15.32,0,0,0,309.355-307.242Z" fill="#74bbc0"/>
                </g>
                <g id="Group_113" data-name="Group 113">
                  <path id="Path_139" data-name="Path 139" d="M317.922-309.316a1.87,1.87,0,0,0,.241.512,2.316,2.316,0,0,0,1.247.882,3.558,3.558,0,0,0,2.135-.012,2.5,2.5,0,0,0,1.716-1.647,3.038,3.038,0,0,1-.475.36,3.824,3.824,0,0,1-1.3.453,6.546,6.546,0,0,1-1.757.069A3.406,3.406,0,0,1,317.922-309.316Z" fill="#74bbc0"/>
                </g>
              </g>
            </g>
          </g>
        </g>
      </g>
      <g id="Group_120" data-name="Group 120">
        <ellipse id="Ellipse_13" data-name="Ellipse 13" cx="42.915" cy="42.871" rx="42.915" ry="42.871" transform="translate(111.383 -284.484)" fill="#211414"/>
        <g id="Group_119" data-name="Group 119">
          <ellipse id="Ellipse_14" data-name="Ellipse 14" cx="36.542" cy="36.505" rx="36.542" ry="36.505" transform="translate(113.221 -273.603)" fill="#ffc9a5"/>
          <ellipse id="Ellipse_15" data-name="Ellipse 15" cx="32.575" cy="32.542" rx="32.575" ry="32.542" transform="translate(117.187 -269.64)" fill="#9a4632"/>
          <path id="Path_140" data-name="Path 140" d="M120.459-232.532c-1.579-3.838,5.7-8.449,5.271-12.461s-.344-11.33,7.229-12.091,11.525-8.732,16.544-7.054,3.766,7.505,6.813,8.858,7.908-5.024,10.808-.042-1.19,7.955,3.021,12.381,10.529,7.938,7.162,13.922-7.566,3.863-8.784,9.571-5.56,7.974-11.094,4.925-10.8,5.476-15.9,2.5-7.652-1.315-13.391-5.232c-3.537-2.414,1.237-9.678-1.537-11.181S121.53-229.928,120.459-232.532Z" fill="#3d1f15"/>
          <path id="Path_141" data-name="Path 141" d="M152.639-222.232c-7.156,1.765-15.42,1.989-19.858-3.439s-3.272-19.646,7.546-24.386,19.082.977,22.908,9.355S160.57-224.187,152.639-222.232Z" fill="#28130d"/>
          <path id="Path_142" data-name="Path 142" d="M144.926-242.322c-4.022-1.184-2.716-11.074,2.7-9.17S151.691-240.33,144.926-242.322Z" fill="#9a4632"/>
          <path id="Path_143" data-name="Path 143" d="M142.605-225.828c-3.752-1.3-1.54-5.7,1.421-4.834S146.356-224.526,142.605-225.828Z" fill="#9a4632"/>
          <path id="Path_144" data-name="Path 144" d="M130.07-234.756c-6.014-1.4-3.268-13.106,3.227-10.978S137.6-233.008,130.07-234.756Z" fill="#9a4632"/>
          <path id="Path_145" data-name="Path 145" d="M143.33-203.021c-10.586-2.48-19.921-7.8-25.041-17.61-4.69-8.986-5.2-21.557-.259-30.472.115-.208.5-.115.461.136-1.424,10.359-3.392,19.635,1.284,29.549,4.7,9.968,14.49,13.269,23.884,17.278A.583.583,0,0,1,143.33-203.021Z" fill="#ffe9db"/>
          <path id="Path_146" data-name="Path 146" d="M123.441-257.773c-.9.966-1.7,1.97-2.517,3-.3.374-1.077.438-1.154-.185a4.293,4.293,0,0,1,1.09-3.2c.488-.652,1.774-2.371,2.789-1.956C124.748-259.661,124-258.372,123.441-257.773Z" fill="#ffe9db"/>
        </g>
      </g>
      <g id="Group_128" data-name="Group 128">
        <g id="Group_124" data-name="Group 124">
          <ellipse id="Ellipse_16" data-name="Ellipse 16" cx="17.849" cy="17.831" rx="17.849" ry="17.831" transform="translate(131.397 -316.393)" fill="#211414"/>
          <g id="Group_123" data-name="Group 123">
            <path id="Path_147" data-name="Path 147" d="M141.7-282.075c-4.279-2.531-2.543-7.4-3.95-9.647s-4.293-4.931-2.168-9.814,2.385-12.838,9.952-12,18.38,5.851,19.749,14.284-3.172,12.148-8.05,15.077S147.092-278.887,141.7-282.075Z" fill="#669845"/>
            <path id="Path_148" data-name="Path 148" d="M142.44-283.321c-3.9-2.3-2.316-6.737-3.6-8.783s-3.908-4.49-1.974-8.935,5.489-10.138,12.377-9.371,13.417,3.778,14.664,11.454-4.137,9.718-8.578,12.383S147.346-280.419,142.44-283.321Z" fill="#76ae54"/>
            <g id="Group_122" data-name="Group 122">
              <path id="Path_149" data-name="Path 149" d="M157.213-297.637a4.073,4.073,0,0,1-1.164,3.416,2.292,2.292,0,0,1-.8.645,9.113,9.113,0,0,1-.607,1.832c-2.024,4.242-7.1,4.349-10.04,1.082a8.449,8.449,0,0,1-2.07-4.777c-1.422-5.741,5.525-12.723,10.687-7.452a6.8,6.8,0,0,1,.826,1.047,4.384,4.384,0,0,1,1.942.535A2.708,2.708,0,0,1,157.213-297.637Z" fill="#95d26e"/>
              <g id="Group_121" data-name="Group 121">
                <path id="Path_150" data-name="Path 150" d="M159.091-291.24l-.025.053c-.014.038-.028.076-.038.116a1.979,1.979,0,0,1-.968,1.21,1.681,1.681,0,0,1-.291.109,2.035,2.035,0,0,1-1.952.233A1.868,1.868,0,0,1,154.6-292.3c.093-.121.18-.244.268-.369.075-.109.159-.211.238-.318a1.119,1.119,0,0,0,.136-.27c-.01.032-.03.1-.061.2l0,0a1.678,1.678,0,0,1,1.669-1.194c.156.023.323.042.484.069.046,0,.09-.017.136-.021a1.915,1.915,0,0,1,1.669,1.037A2.011,2.011,0,0,1,159.091-291.24Z" fill="#95d26e"/>
                <path id="Path_151" data-name="Path 151" d="M155.245-293.258c.012-.039.011-.032,0,0Z" fill="#95d26e"/>
              </g>
              <path id="Path_152" data-name="Path 152" d="M152.446-302.074a7.345,7.345,0,0,1,.158-1.172,1.2,1.2,0,0,1,2.3.067,7.283,7.283,0,0,1,.141,1.18C155.143-300.34,152.35-300.381,152.446-302.074Z" fill="#95d26e"/>
              <path id="Path_153" data-name="Path 153" d="M159.936-295.723a.708.708,0,0,1-1.358-.4,8.994,8.994,0,0,0,.306-2.258.377.377,0,0,1,.644-.244C160.41-297.871,160.242-296.724,159.936-295.723Z" fill="#95d26e"/>
              <path id="Path_154" data-name="Path 154" d="M157.822-293.447a1.015,1.015,0,0,1-2.027-.058c-.027-.454-.11-.891-.179-1.339a7.489,7.489,0,0,1-.281-1.552.974.974,0,0,1,1.464-.8C158.043-296.429,157.9-294.7,157.822-293.447Z" fill="#95d26e"/>
              <path id="Path_155" data-name="Path 155" d="M146.77-306.707a3.8,3.8,0,0,1-1.406,1.156,3.652,3.652,0,0,0-1.242,1.355c-.358.633-1.254.056-.949-.575.553-1.143,1.817-2.727,3.242-2.589A.435.435,0,0,1,146.77-306.707Z" fill="#95d26e"/>
              <path id="Path_156" data-name="Path 156" d="M141.456-302.633a.565.565,0,0,1-1.128-.032c0-.636.083-1.521.882-1.57a.36.36,0,0,1,.343.281A8.09,8.09,0,0,1,141.456-302.633Z" fill="#95d26e"/>
              <path id="Path_157" data-name="Path 157" d="M148.187-285.573a2.578,2.578,0,0,1-2.258-.73.654.654,0,0,1,.656-1.069c.914.31,1.815-.48,2.706-.141a.485.485,0,0,1,.343.472A1.8,1.8,0,0,1,148.187-285.573Z" fill="#95d26e"/>
            </g>
          </g>
        </g>
        <g id="Group_127" data-name="Group 127">
          <path id="Path_158" data-name="Path 158" d="M180.142-326.475c-7.539,13.922-41.771,23.206-27.5-7.366S203.049-368.779,180.142-326.475Z" fill="#211414"/>
          <g id="Group_126" data-name="Group 126">
            <g id="Group_125" data-name="Group 125">
              <path id="Path_159" data-name="Path 159" d="M173.973-357.539s-11.081,12.546-8.051,27.388c0,0,6.421,3.3,7.94-.93s.857-19.856,5.631-27.161Z" fill="#e1beb9"/>
              <path id="Path_160" data-name="Path 160" d="M161.839-357.84s8.5,13.508,20.849,7.916l-1,3.384S162.8-340.292,161.839-357.84Z" fill="#e1beb9"/>
              <path id="Path_161" data-name="Path 161" d="M153.063-325.1s12.831-15.05,30.871-18.777c0,0,3.715-8.637-1.511-9.6C182.422-353.469,156.266-340.019,153.063-325.1Z" fill="#e1beb9"/>
              <path id="Path_162" data-name="Path 162" d="M154.9-318.224s12.488-23.7,29.294-24.306l3.448,5.807s-20.247,2.136-29.23,19.988Z" fill="#e1beb9"/>
              <path id="Path_163" data-name="Path 163" d="M159.429-318.18S173.915-339.8,166.584-354l-3.2.516s-.259,18.47-8.088,27.514S159.429-318.18,159.429-318.18Z" fill="#e1beb9"/>
              <path id="Path_164" data-name="Path 164" d="M165-316.324s14.251-9.866,16.179-28.469l-4.55-3.055s-2.531,20.732-18.858,26.859C157.773-320.988,156.458-312.97,165-316.324Z" fill="#e1beb9"/>
            </g>
            <path id="Path_165" data-name="Path 165" d="M166.424-331.849c-1.431,1.737-3.817,2.8-5.53,4.264a18.964,18.964,0,0,0-4.762,5.7c-.327.645-1.44.158-1.163-.512a19.3,19.3,0,0,1,4.12-6.132c1.648-1.706,4.32-4.087,6.76-4.392A.636.636,0,0,1,166.424-331.849Z" fill="#f8e0dd"/>
            <path id="Path_166" data-name="Path 166" d="M170.247-329.693a34.672,34.672,0,0,1-9.7,11.541c-.548.421-1.3-.343-.748-.792,3.925-3.213,6.548-7.459,9.945-11.155C170.009-330.384,170.4-330,170.247-329.693Z" fill="#f8e0dd"/>
            <path id="Path_167" data-name="Path 167" d="M179.924-347.715c-2.984,2.221-6.561,3.543-9.715,5.533a48.459,48.459,0,0,0-11.131,9.721c-.459.549-1.369-.206-.973-.786,4.563-6.677,12.745-15.113,21.373-15.64A.683.683,0,0,1,179.924-347.715Z" fill="#f8e0dd"/>
            <path id="Path_168" data-name="Path 168" d="M178.791-340.4a15.773,15.773,0,0,1-3.462.718,20.631,20.631,0,0,0-4.762,1.5c-.725.316-1.3-.718-.583-1.1,2.347-1.246,6.018-3.088,8.707-2.1C179.087-341.238,179.262-340.593,178.791-340.4Z" fill="#f8e0dd"/>
            <path id="Path_169" data-name="Path 169" d="M173.554-355.393c-1.114,3.076-2.447,6.634-4.464,9.228-.217.279-.8.226-.746-.221.411-3.357,2.816-6.432,4.221-9.444C172.826-356.391,173.762-355.968,173.554-355.393Z" fill="#f8e0dd"/>
          </g>
        </g>
      </g>
      <g id="Group_140" data-name="Group 140">
        <g id="Group_132" data-name="Group 132">
          <path id="Path_170" data-name="Path 170" d="M358.068-160.916c-26.977,8.758-71.8-83.613-30.18-107.286S405.337-176.262,358.068-160.916Z" fill="#211414"/>
          <g id="Group_131" data-name="Group 131">
            <path id="Path_171" data-name="Path 171" d="M360.819-166.482s5.85.083,5.984-4.186c0,0,6.784-2.453,5.343-6.669,0,0,8.629-5.574,5.506-12.885,0,0,3.464-7.072-1.736-15.61,0,0,4.385-5.908-4.025-12.194,0,0,3.688-6.242-3.282-12.034,0,0,3.325-7.48-5.684-11.768,0,0,2.432-7.684-6.247-9.154,0,0-2.721-9.179-11-7.046,0,0-10.547-7.341-14.155-1.473,0,0-8.145-2.137-9.963,4.506,0,0-7.319,3.12-5.852,10.857,0,0-7.514,6.48-.858,13.1,0,0-3.447,5.121.772,9.152,0,0-2.225,9.592,4.668,14.676,0,0-1.632,9.418,6.14,11.474,0,0-2.914,9.925,6.06,11.849,0,0-1.685,7.843,6.434,9.194,0,0-.724,6.1,9.56,5.566C348.481-169.127,354.835-162.295,360.819-166.482Z" fill="#bbe1e7"/>
            <path id="Path_172" data-name="Path 172" d="M359.126-171.717s5.2.073,5.32-3.722c0,0,6.03-2.179,4.75-5.928,0,0,7.669-4.954,4.894-11.454,0,0,3.08-6.285-1.543-13.875,0,0,3.9-5.25-3.577-10.839,0,0,3.278-5.549-2.917-10.7,0,0,2.956-6.649-5.053-10.46,0,0,2.163-6.83-5.552-8.137,0,0-2.42-8.16-9.781-6.266,0,0-9.376-6.525-12.582-1.307,0,0-7.241-1.9-8.857,4,0,0-6.505,2.773-5.2,9.651,0,0-6.681,5.76-.764,11.646,0,0-3.064,4.552.686,8.135,0,0-1.977,8.526,4.151,13.045,0,0-1.452,8.372,5.457,10.2,0,0-2.59,8.821,5.385,10.532,0,0-1.5,6.972,5.72,8.172,0,0-.643,5.419,8.5,4.948C348.159-174.067,353.807-167.994,359.126-171.717Z" fill="#fff"/>
            <g id="Group_130" data-name="Group 130">
              <path id="Path_173" data-name="Path 173" d="M345.147-268.3s-8.387,4.452-14.611,4.291-14.236,4.371-14.236,4.371,3.221,32.338,9.6,53.632S350.775-161.6,350.775-161.6s20.112-.768,23.37-3.194a17.094,17.094,0,0,0,4.89-6.375s-7.608-13.743-7.739-20.414-4.426-26.736-11.205-40.692S345.147-268.3,345.147-268.3Z" fill="#ff9b0d"/>
              <g id="Group_129" data-name="Group 129" clip-path="url(#clip-path-7)">
                <path id="Path_174" data-name="Path 174" d="M366.58-180.192c-1,5.289-6.121,8.15-10.61,9.681s-13.457-6.965-17.963-14.9-13.666-31.879-9.381-42.887,18.081-11.823,23.222-5.707S369.845-197.493,366.58-180.192Z" fill="#ffb14d"/>
                <path id="Path_175" data-name="Path 175" d="M361.875-159.563a27.154,27.154,0,0,1,2.178-10.132c2.2-4.8,8.347-14.284,9.493-21.435l-.859-3.283s-2.326,8.1-5.132,12.965-10.315,18.888-10.277,24.17Z" fill="#ffe6ce"/>
                <path id="Path_176" data-name="Path 176" d="M338.28-171.7c3-13.033,17.155-27.97,22.511-32.878s7.269-12.9,7.269-12.9l1.19,3.576c-1.322,8.9-9.328,12.457-17.055,23.847s-9.949,26.286-9.949,26.286Z" fill="#ffe6ce"/>
                <path id="Path_177" data-name="Path 177" d="M329.089-183.541s6.583-21.542,14.2-30.562c8.1-9.592,17.913-13.248,18.686-21.482l-.747-2.9s.974,3.951-7.95,10.608c-12.808,9.556-20.887,20.718-25.989,40.282Z" fill="#ffe6ce"/>
                <path id="Path_178" data-name="Path 178" d="M319.691-215.347s4.437-11.552,10.915-16.219,22.206-15.072,22.6-19.769l-1.236-3.2s-2.427,6.708-8.25,10.148-15.627,7.2-20.129,15.415S318.129-219,319.691-215.347Z" fill="#ffe6ce"/>
                <path id="Path_179" data-name="Path 179" d="M315.329-236.009s10.982-20.041,17.2-22.692,13.222-6.933,15.133-12.188l-1.184-1.817s-2.182,6.563-13.033,10.2-19.352,24.08-19.352,24.08Z" fill="#ffe6ce"/>
              </g>
            </g>
          </g>
        </g>
        <g id="Group_135" data-name="Group 135">
          <path id="Path_181" data-name="Path 181" d="M235.371-124.658c-27.893,9.055-74.235-86.451-31.205-110.928S284.245-140.526,235.371-124.658Z" fill="#211414"/>
          <g id="Group_134" data-name="Group 134">
            <path id="Path_182" data-name="Path 182" d="M232.025-135.533s5.762.509,6.209-3.69c0,0,6.869-1.922,5.758-6.184,0,0,8.918-4.864,6.374-12.3,0,0,3.936-6.719-.565-15.521,0,0,4.758-5.5-3.074-12.318,0,0,4.1-5.886-2.352-12.107,0,0,3.827-7.133-4.742-12.02,0,0,2.963-7.4-5.488-9.483,0,0-2.01-9.252-10.331-7.755,0,0-9.862-8.011-13.85-2.488,0,0-7.874-2.7-10.155,3.714,0,0-7.446,2.54-6.568,10.278,0,0-7.886,5.838-1.807,12.854,0,0-3.775,4.8.089,9.081,0,0-2.9,9.3,3.527,14.813,0,0-2.3,9.168,5.211,11.765,0,0-3.6,9.572,5.105,12.127,0,0-2.237,7.611,5.669,9.536,0,0-1.161,5.958,9.018,6.189C220.053-139.044,225.818-131.842,232.025-135.533Z" fill="#bbe1e7"/>
            <path id="Path_183" data-name="Path 183" d="M230.739-140.828s5.12.453,5.518-3.28c0,0,6.105-1.708,5.118-5.5,0,0,7.925-4.323,5.666-10.934,0,0,3.5-5.972-.5-13.793,0,0,4.229-4.892-2.731-10.947,0,0,3.638-5.231-2.091-10.76,0,0,3.4-6.34-4.214-10.684,0,0,2.632-6.575-4.878-8.428,0,0-1.786-8.222-9.182-6.892,0,0-8.763-7.12-12.308-2.211,0,0-7-2.4-9.025,3.3,0,0-6.618,2.257-5.837,9.133,0,0-7.008,5.189-1.607,11.425,0,0-3.354,4.264.08,8.071,0,0-2.575,8.261,3.135,13.165,0,0-2.045,8.146,4.631,10.455,0,0-3.2,8.508,4.537,10.777,0,0-1.988,6.764,5.038,8.476,0,0-1.031,5.3,8.015,5.5C220.1-143.95,225.221-137.548,230.739-140.828Z" fill="#fff"/>
            <g id="Group_133" data-name="Group 133">
              <path id="Path_184" data-name="Path 184" d="M208.411-228.877s1.761,4.859-.94,3.2a13.651,13.651,0,0,0-4.017-1.522c-2.72-3.667-16.127-11.516-13.127-15.089,3.121-3.716,9.277,3.933,9.277,3.933s-6.552-16.162-2.488-18.155,8.055,11.05,8.055,11.05.983-14.189,6.867-14.488,6.046,9.011,4.245,15.142a91.327,91.327,0,0,0-2.552,14.6C213.288-226.349,208.411-228.877,208.411-228.877Z" fill="#ee7c1d"/>
              <path id="Path_185" data-name="Path 185" d="M232.758-142.114c.1,7.5-14.664,12.645-14.883,12.72-11.387-15.074-3.867-24.88-3.867-24.88-14.681-4.307-8.165-26.426-8.165-26.426-12.5-9.745-4.216-24.109-4.216-24.109-7.568-9.749,2.109-21.965,2.109-21.965a3.814,3.814,0,0,0-.282-.426,13.651,13.651,0,0,1,4.017,1.522c2.7,1.66.94-3.2.94-3.2s4.877,2.528,5.32-1.335c17.7,7.8,12.773,17.645,12.773,17.645,13.148,13.412,5.636,24.237,5.636,24.237,14.756,8.96,7.511,22.759,7.511,22.759,11.6,8.324,8.757,21.927,8.2,27.94C237.056-136.85,232.758-142.114,232.758-142.114Z" fill="#fbce4f"/>
              <path id="Path_186" data-name="Path 186" d="M247.417-135.787c-2.054,4.029-13.4,1.56-13.4,1.56-5.145,7.54-14.309,6.636-15.25,6.522-.1-.131-.194-.27-.285-.417-.216-.433-.4-.85-.6-1.273.22-.075,14.98-5.22,14.883-12.72,0,0,4.3,5.264,15.092,4.483A5.345,5.345,0,0,1,247.417-135.787Z" fill="#fff5dd"/>
            </g>
            <path id="Path_187" data-name="Path 187" d="M205.843-180.7s11.091,8.8,15.619-1.448c0,0,6.4,2.257,10.678-6.182,0,0-5.562,4.737-13.164-1.257C218.977-189.587,220.382-182.271,205.843-180.7Z" fill="#fff5dd"/>
            <path id="Path_188" data-name="Path 188" d="M214.4-155.606s9.937-5.193,11.473-11.4a31.129,31.129,0,0,0,13.778,1.436s-2.458,11.077-11.708,5.252C227.944-160.319,225.57-150.858,214.4-155.606Z" fill="#fff5dd"/>
            <path id="Path_189" data-name="Path 189" d="M204.028-204.105s9.944,5.246,11.325-3.717c0,0,7.021,6.679,9.892-3.087a23.852,23.852,0,0,1-12.888-3.782S214.1-207.809,204.028-204.105Z" fill="#fff5dd"/>
            <path id="Path_190" data-name="Path 190" d="M233.36-144.167s-.878-11.136-5.413-14.777C227.947-158.944,229.492-149.2,233.36-144.167Z" fill="#b98b1a"/>
            <path id="Path_191" data-name="Path 191" d="M226.205-168.14s.807-9.2-3.879-14.434A71.949,71.949,0,0,0,226.205-168.14Z" fill="#b98b1a"/>
            <path id="Path_192" data-name="Path 192" d="M219.33-190.786a19.59,19.59,0,0,0-3.474-15.351A61.923,61.923,0,0,0,219.33-190.786Z" fill="#b98b1a"/>
            <path id="Path_193" data-name="Path 193" d="M213.062-215.859a14.9,14.9,0,0,0-2.374-10.9S210.494-222.376,213.062-215.859Z" fill="#b98b1a"/>
            <path id="Path_194" data-name="Path 194" d="M225.245-137.687c-4.751,2.845-8.793,3.21-10.609-.612s.211-13.338,7.69-13.256S229.371-140.157,225.245-137.687Z" fill="#fbd98f"/>
            <path id="Path_195" data-name="Path 195" d="M243.174-142.114c-3.809,1.89-12.1-10.719-7.4-13.766C243.122-160.64,252.714-146.848,243.174-142.114Z" fill="#fbd98f"/>
            <path id="Path_196" data-name="Path 196" d="M218.483-161.6c-7.8,5.847-15.138-10.227-7.8-16.394S226.965-167.962,218.483-161.6Z" fill="#fbd98f"/>
            <path id="Path_197" data-name="Path 197" d="M235.164-168.14c-3.756,1.813-11.324-12.657-5.509-15.792S242.51-171.686,235.164-168.14Z" fill="#fbd98f"/>
            <path id="Path_198" data-name="Path 198" d="M211.985-185.08c-6.366,3.278-14.622-11.9-4.33-14.524C213.68-201.139,219.109-188.749,211.985-185.08Z" fill="#fbd98f"/>
            <path id="Path_199" data-name="Path 199" d="M229.576-190.786c-5.532,2.939-11.612-10.407-5.929-14.476S237.149-194.809,229.576-190.786Z" fill="#fbd98f"/>
            <path id="Path_200" data-name="Path 200" d="M206.546-208.635c-4.83,1.75-6.9-10.9-1.378-14.514S210.371-210.022,206.546-208.635Z" fill="#fbd98f"/>
            <path id="Path_201" data-name="Path 201" d="M223.647-213.976c-3.837,3.712-13.048-9.047-9.012-11.357S227.282-217.492,223.647-213.976Z" fill="#fbd98f"/>
            <path id="Path_202" data-name="Path 202" d="M205.49-228.2c-.809,1.492-14.62-9.391-13.051-12.077S207.648-232.178,205.49-228.2Z" fill="#ff9445"/>
            <path id="Path_203" data-name="Path 203" d="M207.167-230.212c-1.626,1.951-11.346-20.6-9.651-23.361S208.845-232.225,207.167-230.212Z" fill="#ff9445"/>
            <path id="Path_204" data-name="Path 204" d="M210.684-230.092c-3.516.091-5.719-25.6.733-27.751S213.139-230.155,210.684-230.092Z" fill="#ff9445"/>
            <path id="Path_205" data-name="Path 205" d="M190.41-178.641s39.9-9.992,55.937-18.344l2.3,6.739s-37.587,17.445-56.7,19.365C191.943-170.88,190.031-172.51,190.41-178.641Z" fill="#0f161e"/>
          </g>
        </g>
        <g id="Group_139" data-name="Group 139">
          <path id="Path_206" data-name="Path 206" d="M291.107-154.03c-29.1,9.448-77.455-90.2-32.558-115.741S342.1-170.586,291.107-154.03Z" fill="#211414"/>
          <g id="Group_138" data-name="Group 138">
            <path id="Path_207" data-name="Path 207" d="M290.195-160.489s6.173.545,6.652-3.954c0,0,7.361-2.06,6.169-6.627,0,0,9.555-5.211,6.831-13.181,0,0,4.216-7.2-.607-16.628,0,0,5.1-5.9-3.293-13.2,0,0,4.387-6.305-2.52-12.971,0,0,4.1-7.643-5.082-12.88,0,0,3.174-7.927-5.881-10.161,0,0-2.153-9.911-11.068-8.309,0,0-10.567-8.583-14.84-2.665,0,0-8.437-2.9-10.881,3.979,0,0-7.978,2.721-7.037,11.012,0,0-8.449,6.256-1.937,13.773,0,0-4.045,5.141.1,9.73,0,0-3.1,9.96,3.779,15.872,0,0-2.466,9.821,5.584,12.605,0,0-3.859,10.257,5.469,12.994,0,0-2.4,8.154,6.074,10.217,0,0-1.243,6.385,9.662,6.632C277.367-164.252,283.544-156.535,290.195-160.489Z" fill="#bbe1e7"/>
            <path id="Path_208" data-name="Path 208" d="M287.391-166.987s5.387.476,5.8-3.451c0,0,6.424-1.8,5.384-5.782,0,0,8.337-4.547,5.961-11.5,0,0,3.679-6.283-.53-14.511,0,0,4.448-5.146-2.874-11.516,0,0,3.829-5.5-2.2-11.32,0,0,3.578-6.668-4.434-11.237,0,0,2.771-6.917-5.131-8.867,0,0-1.879-8.648-9.658-7.251,0,0-9.22-7.489-12.949-2.326,0,0-7.362-2.527-9.494,3.472,0,0-6.962,2.376-6.141,9.609,0,0-7.372,5.459-1.69,12.018,0,0-3.53,4.486.084,8.491,0,0-2.709,8.69,3.3,13.85,0,0-2.152,8.571,4.872,11,0,0-3.368,8.949,4.773,11.337,0,0-2.091,7.117,5.3,8.916,0,0-1.084,5.571,8.431,5.786C276.2-170.271,281.587-163.537,287.391-166.987Z" fill="#fff"/>
            <g id="Group_137" data-name="Group 137">
              <path id="Path_209" data-name="Path 209" d="M315.838-164.379s-18.422,12.874-32.357,13.254c0,0-18.659-27.813-26.239-46.284s-11.271-48.8-10.045-62.654a133.207,133.207,0,0,0,17.192-5.923c7.044-3.214,15.913-7.11,15.913-7.11s12.017,42.111,18.76,57.9S313.964-171.834,315.838-164.379Z" fill="#ff6957"/>
              <g id="Group_136" data-name="Group 136" clip-path="url(#clip-path-8)">
                <path id="Path_210" data-name="Path 210" d="M300.978-173.514c3.64,8.539-9.931,15.734-19.032,9.554-5.78-3.926-31.447-40.213-28.658-68.167,1.315-13.17,16.664-16.882,23.918-9.09S297.749-181.088,300.978-173.514Z" fill="#ff9691"/>
                <path id="Path_211" data-name="Path 211" d="M307.93-158.1s-2.235-19.486,1.54-27.951-2.033-6.291-2.033-6.291-4.742,14.708-1.638,36.71S307.93-158.1,307.93-158.1Z" fill="#ffd2d1"/>
                <path id="Path_212" data-name="Path 212" d="M289.264-147.265s-3.074-51.308,6.536-82.112l-1.224-4.91s-12.328,26.614-8.284,87.556Z" fill="#ffd2d1"/>
                <path id="Path_213" data-name="Path 213" d="M266.659-173.58s1.694-64.462,20.052-90.01l-1.431-3.231s-15.509,8.667-21.848,87.233Z" fill="#ffd2d1"/>
                <path id="Path_214" data-name="Path 214" d="M250.918-204.35s.894-47.263,17.613-65.686L265-271.366s-14.754,18.456-15.864,62.389Z" fill="#ffd2d1"/>
              </g>
            </g>
          </g>
        </g>
      </g>
      <g id="Group_146" data-name="Group 146">
        <path id="Path_216" data-name="Path 216" d="M351.527-319.11c-3.571,1.822,35.762,96.984,46.014,104.419s10.251-9.645,3.517-24.186S358.62-322.73,351.527-319.11Z" fill="#211414"/>
        <path id="Path_217" data-name="Path 217" d="M353.314-332.742c-5.752,2.79,47.07,90.131,55.6,85.854C425.649-255.289,375.869-343.687,353.314-332.742Z" fill="#211414"/>
        <g id="Group_145" data-name="Group 145">
          <g id="Group_142" data-name="Group 142">
            <g id="Group_141" data-name="Group 141">
              <path id="Path_218" data-name="Path 218" d="M458.733-96.989c-4.6,2.789-7.086.38-10.575-8.1-1.911-4.644-93.543-202.129-95.885-207.5s1.261-6.637,4.84.275c1.316,2.542,99.893,195.669,102.422,201.257C462.811-103.813,466.05-101.423,458.733-96.989Z" fill="#ac905a"/>
              <path id="Path_219" data-name="Path 219" d="M456.05-100.334c-3.6,0-5.488-3.24-8.978-11.72-1.911-4.642-90.178-191.565-92.52-196.937s-1.249-6.463,2.33.449c1.316,2.542,93.376,185.667,95.9,191.257C456.063-110.042,462.028-100.334,456.05-100.334Z" fill="#dcb87a"/>
            </g>
            <path id="Path_220" data-name="Path 220" d="M452.981-104.728c-3.154-3.991-4.745-8.787-6.678-13.436-2.466-5.928-5.081-11.8-7.383-17.791a.1.1,0,0,1,.185-.1c3.277,4.731,5.4,9.99,7.6,15.282,2.169,5.234,5.147,10.116,7.2,15.381C454.121-104.839,453.417-104.178,452.981-104.728Z" fill="#f6d49e"/>
            <path id="Path_221" data-name="Path 221" d="M426.826-159.924c-5.508-7.652-8.087-16.667-11.847-25.224a.182.182,0,0,1,.321-.17c5.25,7.711,7.409,16.974,12.081,25C427.573-159.992,427.054-159.607,426.826-159.924Z" fill="#f6d49e"/>
          </g>
          <g id="Group_144" data-name="Group 144">
            <g id="Group_143" data-name="Group 143">
              <path id="Path_222" data-name="Path 222" d="M493.12-130.2c-4.134,3.44-6.95,1.427-11.662-6.439-2.582-4.307-122.582-185.99-125.7-190.955s.26-6.75,4.829-.447c1.679,2.319,127.9,178.659,131.232,183.81C496.137-137.558,499.7-135.676,493.12-130.2Z" fill="#ac905a"/>
              <path id="Path_223" data-name="Path 223" d="M489.97-133.114c-3.562.535-5.91-2.389-10.623-10.255-2.582-4.307-117.684-176.045-120.8-181.008s-2.2-6.206,2.372.1c1.68,2.319,119.968,169.737,123.3,174.889C488.537-142.716,495.881-134,489.97-133.114Z" fill="#dcb87a"/>
            </g>
            <path id="Path_224" data-name="Path 224" d="M486.879-135.083c-3.929-1.919-6.261-6.211-8.392-9.853-3.666-6.262-8.584-11.583-11.859-18.157-.131-.263.231-.546.432-.31,7.408,8.737,12.685,19.09,20.27,27.76A.365.365,0,0,1,486.879-135.083Z" fill="#f6d49e"/>
            <path id="Path_225" data-name="Path 225" d="M470.282-161.446c-8.547-8.481-15.876-21.028-20.717-31.958a.182.182,0,0,1,.321-.17c3.7,5.151,6.651,10.83,10.023,16.2s7.434,10.253,10.943,15.522C471.081-161.51,470.554-161.177,470.282-161.446Z" fill="#f6d49e"/>
            <path id="Path_226" data-name="Path 226" d="M443.855-199.264a94.164,94.164,0,0,1-13.122-18.211.365.365,0,0,1,.585-.419c5.181,5.279,8.566,12.236,13.26,17.948C444.981-199.456,444.292-198.787,443.855-199.264Z" fill="#f6d49e"/>
          </g>
        </g>
      </g>
    </g>
  </g>
</svg>
