<svg xmlns="http://www.w3.org/2000/svg" width="426.5" height="426.5" viewBox="0 0 426.5 426.5">
  <g id="your_image_here" data-name="your image here" transform="translate(-92.865 -643.056)">
    <g id="Group_78" data-name="Group 78">
      <g id="Group_1" data-name="Group 1">
        <circle id="Ellipse_1" data-name="Ellipse 1" cx="213.25" cy="213.25" r="213.25" transform="translate(92.865 643.056)" fill="#191919"/>
        <circle id="Ellipse_2" data-name="Ellipse 2" cx="135.376" cy="135.376" r="135.376" transform="translate(172.252 719.417)" fill="#1c1c1c"/>
        <path id="Path_1" data-name="Path 1" d="M514.134,856.306c0,114.885-93.133,208.019-208.019,208.019S98.1,971.191,98.1,856.306,191.23,648.289,306.115,648.289,514.134,741.42,514.134,856.306ZM306.115,710.9A145.406,145.406,0,1,0,451.521,856.306,145.406,145.406,0,0,0,306.115,710.9Z" fill="#161616"/>
      </g>
      <g id="Group_2" data-name="Group 2">
        <path id="Path_2" data-name="Path 2" d="M397.363,814.05c-.02.009-.042.01-.064.019C396.984,814.217,396.885,814.259,397.363,814.05Z" fill="#ccc"/>
        <path id="Path_3" data-name="Path 3" d="M388.226,752.852a29.434,29.434,0,0,1,5.93,6.689c1.109,1.862,2.591,5.013,4.991,5.432,2.923.513,4.777-1.323,5.013-4.127a2.677,2.677,0,0,0-1.935-2.759c-1.338-1.964-2.687-4.006-4.21-5.819-3.14-3.736-8.082-5.583-10.514-9.988-1.494-2.7-6.163-.713-5,2.2A22.027,22.027,0,0,0,388.226,752.852Z" fill="#ccc"/>
        <path id="Path_4" data-name="Path 4" d="M338.47,764.276a3.015,3.015,0,0,0,2.887,3.132c5.049-.015,10.527.826,15.464-.447a3.646,3.646,0,0,0,2.543-2.694,3.461,3.461,0,0,0-1.058-3.5,3.144,3.144,0,0,0-1.972-.925,2.635,2.635,0,0,0-1.328-2.378c-2.31-1.414-4.914-.538-7.388.05a58.44,58.44,0,0,1-8.507,1.722A2.583,2.583,0,0,0,338.47,764.276Z" fill="#ccc"/>
        <path id="Path_5" data-name="Path 5" d="M326.842,729.423a48.91,48.91,0,0,0-3.936,5.521c-4.168,3.12-6.273,10.571-7.215,14.966-.788,3.678,4.612,5.9,6.3,2.351.219-.463.434-.93.65-1.395a3.677,3.677,0,0,0,4.552-.5,74.7,74.7,0,0,0,7.821-9.946,5.829,5.829,0,0,0,2.136-3.553,3.474,3.474,0,0,0-4.232-4.208C333.377,729.436,329.291,726.482,326.842,729.423Z" fill="#ccc"/>
        <path id="Path_6" data-name="Path 6" d="M328.831,795.074a4.233,4.233,0,0,0,1.384.222c.616,2.171,3.148,3.943,5.24,2.282.732-.58,1.481-1.14,2.23-1.7,1.419-.854,3-1.393,4.481-2.2a2.676,2.676,0,0,0,1.46-2.359c.78-.654,1.545-1.326,2.269-2.044,2.62-2.6-.321-6.416-3.51-5.728a32,32,0,0,0-7.567,3.161c-1.319.673-2.6,1.428-3.905,2.117-.443.233-.876.477-1.322.7a1.729,1.729,0,0,0-.42.245C326.451,789.923,325.94,794.035,328.831,795.074Z" fill="#ccc"/>
        <path id="Path_7" data-name="Path 7" d="M329.382,777.006a13.567,13.567,0,0,0,.112-1.365c.079-2.907-4.255-4.816-6.113-2.327a56.452,56.452,0,0,0-6.056,9.165c-1.622,3.4,2.986,7.12,5.578,4,.936-1.128,1.922-2.182,2.856-3.263.322-.233.643-.479.965-.746a7.967,7.967,0,0,0,2.592-4.947A2.03,2.03,0,0,0,329.382,777.006Z" fill="#ccc"/>
        <path id="Path_8" data-name="Path 8" d="M291.753,813.306a2.7,2.7,0,0,0-2.444-.724c-1.95-2.725-6.9-1.59-6.8,2.266.013.5.039.975.082,1.432-.265-.074-.532-.149-.8-.217-.208-.189-.428-.36-.634-.554a3.409,3.409,0,0,0-4.934,0c-2.8.994-4.1,5.077-.749,6.671.5.239,1.01.442,1.516.665,3.656,5.417,9.752,9.734,16.34,9.524a3.384,3.384,0,0,0,2.852-1.565,10.551,10.551,0,0,0,7.254-2.673c.187-.057.367-.121.554-.175a3.366,3.366,0,0,0,2.4-4.236c.188-.46.364-.933.516-1.431.877-2.878-3.5-4.389-4.853-1.811-.066.125-.138.236-.207.356a66.568,66.568,0,0,1-8.06-.692A7.2,7.2,0,0,0,291.753,813.306Z" fill="#ccc"/>
        <path id="Path_9" data-name="Path 9" d="M279.906,786.978c-.052.128-.1.259-.156.389-1.652,4.034,3.782,7.09,6.062,3.213,3.017-5.128,5.838-10.885,6.743-16.811.484-3.158-3.774-6.409-6.123-3.282-3.012,4.006-7.2,8.708-8.008,13.783A2.514,2.514,0,0,0,279.906,786.978Z" fill="#ccc"/>
        <path id="Path_10" data-name="Path 10" d="M226.738,816.239c-1.463,2.664,2.453,5.619,4.417,3.167a60.271,60.271,0,0,1,4.641-5.13c-.686.957-1.351,1.928-2,2.907-1.543,2.273-3.027,4.586-4.38,6.986-2.326,4.125,4.019,7.419,6.458,3.423,1.648-2.7,3.373-5.5,5.259-8.193.966,2.38,4.222,3.884,6.037,1.357a89.1,89.1,0,0,1,8.857-10.731,2.576,2.576,0,0,0,2.818-.525c1.972-1.823,2.25-3.666,1.548-6.2a3.542,3.542,0,0,0-5.2-2.017c-.458.312-.89.648-1.329.979A3.931,3.931,0,0,0,253,801.4c.061-.109.13-.214.189-.323,1.788-3.219-2-6.284-4.978-4.7C239.865,800.823,231.334,807.873,226.738,816.239Z" fill="#ccc"/>
        <path id="Path_11" data-name="Path 11" d="M217.755,856.045c.561-.42,1.09-.866,1.6-1.325a3.928,3.928,0,0,0,4.877-.5,30.259,30.259,0,0,0,3.218-4.2,3.118,3.118,0,0,0,4.863-2.645c-.009-2.435-.141-4.925.879-7.193a3.663,3.663,0,0,0-2.058-5.166c1.561-4.2-4.5-7.439-6.648-3.215-1.548,3.046-3.076,6.069-4.294,9.188.045-.415.09-.831.131-1.249.24-2.434-3.314-2.866-4.344-1.014-2.428,4.362-3.121,9.511-3.564,14.414C212.186,855.689,215.752,857.537,217.755,856.045Z" fill="#ccc"/>
        <path id="Path_12" data-name="Path 12" d="M176.882,842.848a2.9,2.9,0,0,0,3.923-1.205c.912-1.8.4-4.067.4-6.017a41.21,41.21,0,0,0-.354-7c-.442-2.652-4.635-2.329-5.093.147a67.931,67.931,0,0,0-.879,7.626C174.7,838.924,174.593,841.258,176.882,842.848Z" fill="#ccc"/>
        <path id="Path_13" data-name="Path 13" d="M311.7,716a35.161,35.161,0,0,0,10.377-6.552A21.681,21.681,0,0,0,330,702.31c1.714-2.572-.861-5.516-3.508-5.517a10.255,10.255,0,0,0-.474-1.042,2.53,2.53,0,0,0-4.6.736,10.755,10.755,0,0,1-.66,2.253A33.7,33.7,0,0,0,307.3,710.606C305.56,713.259,308.746,717.181,311.7,716Z" fill="#ccc"/>
        <path id="Path_14" data-name="Path 14" d="M272.529,741.173c4.9-2.047,7.989-6.7,10.66-11.09,2.1-3.445-3.366-7.448-5.82-4.172-1.243,1.657-2.469,3.327-3.748,4.956-.969,1.234-2.652,2.591-3.286,4.128-.332.323-.643.657-.994.975l.031.016C267.464,738.108,269.4,742.483,272.529,741.173Z" fill="#ccc"/>
        <path id="Path_15" data-name="Path 15" d="M221.574,749.885a13.548,13.548,0,0,0,4.354-.015,3.523,3.523,0,0,0,5.854,1.186c5.692-5.685,11.046-11.7,16.706-17.415,3.3-3.328-1.838-8-5.227-4.933-6.815,6.176-12.714,13.249-21.841,15.831C218.842,745.269,218.782,749.421,221.574,749.885Z" fill="#ccc"/>
        <path id="Path_16" data-name="Path 16" d="M369.19,710.4c6.284-12.821,13.915-26.829.453-37.693-2.346-1.893-6.759-.707-6.394,2.868a13.663,13.663,0,0,0,1.316,4.874,2.66,2.66,0,0,0,3.145,1.274c5.572,8.271-3.135,16.642-4.5,26.442C362.726,711.6,367.487,713.876,369.19,710.4Z" fill="#ccc"/>
        <path id="Path_17" data-name="Path 17" d="M422.923,735.4c-6.744-10.513-18.466-21-31.575-21.114-2.759-.023-2.722,3.672-.444,4.468A50.114,50.114,0,0,1,421.259,748.5a22.092,22.092,0,0,1-6.088,5.25,16.479,16.479,0,0,0-2.149-3.216A99.286,99.286,0,0,0,393.3,733.183a41.445,41.445,0,0,0-9.233-4.587c-1.243-.732-2.54-1.386-3.678-2.081-3.333-2.037-6.582-4.2-9.908-6.253-2.093-1.288-3.921.442-4.083,2.374a3.336,3.336,0,0,0-.38,4.159,14.937,14.937,0,0,0,8.733,6.674c6.6,2.2,12.318,4.163,18.016,8.357,5.453,4.012,11.876,9.234,15.622,14.913,4.028,6.109-4.035,10.435-9.239,13.08-.089-.372-.182-.743-.245-1.112-.526-3.082-5.575-2.206-5.351.848.5,6.9,2.737,13.131,4.647,19.759a48.184,48.184,0,0,1,2.25,12.523,3.976,3.976,0,0,1-2.351,4.137c-3.462-6.967-6.866-14.376-11.257-20.849a4.158,4.158,0,0,0-3.709-4.9c-.181-.213-.344-.443-.529-.651-1.549-1.753-4.736.211-3.951,2.375a27.817,27.817,0,0,1-8.107,2.125,19.693,19.693,0,0,1-4.7-.182,27.84,27.84,0,0,0-3.54-7.14c-2.155-3.086-7.449-1.112-6.221,2.744.733,2.3,1.447,4.5,2.059,6.7a2.857,2.857,0,0,0,.353,1.373l.012.019a42.408,42.408,0,0,1,1.476,10.15c.1,6.582-1.575,13.135-3.518,19.371-2.555,8.2-6.766,15.33-11.036,22.476a3.34,3.34,0,0,0-3.382,1.58c-1.437,2.632-1.5,5.695-2.476,8.561q-.728,1.353-1.424,2.728a2.964,2.964,0,0,0-.319,1.145c-1.226,2.384-2.619,4.694-3.991,7a2.517,2.517,0,0,0-3.572-1.263c-1.925,1.28-3.145,3.47-4.21,5.475-.925,1.744-1.922,3.461-2.993,5.127-2.665-2.133-5.023-5.5-7.133-7.72a3.735,3.735,0,0,0-4.418-.469c-1.5.7-2.974,1.443-4.434,2.214a2.5,2.5,0,0,0-2.735-.012,9.963,9.963,0,0,0-3.385,3.516,2.72,2.72,0,0,0-.966,1.756c-1.183,2.327-2.221,4.755-4.583,6.454-4.459,3.2-10.061,4.373-14.559,7.629-4.115,2.979-7.238,7.627-10.721,11.3a49.339,49.339,0,0,1-7.659,6.305,2.9,2.9,0,0,0-2.505,1.584c-.029.076-.039.144-.064.219-1.615,1.137-3.22,2.3-4.758,3.583-1.69,1.413-.182,4.583,1.941,4.328a20.852,20.852,0,0,0,2.391-.427A11.534,11.534,0,0,1,256,914.508c-3.728,2.967-8.066,3.8-11.881,1.275a13.674,13.674,0,0,0,5.5-4.424,1.618,1.618,0,0,0-1.47-2.364c-3.416.372-6.6,2.036-9.915,2.965a3.053,3.053,0,0,0-.825-.013c-9.533,1.243-19.1-.711-28.249-3.439-1.18-.353-2.374-.737-3.564-1.157-3.649-1.928-7.2-4.159-11.043-6.372a1.293,1.293,0,0,0-.812-.168,4.505,4.505,0,0,1-1.428-2.633c2.482-.382,3.3-3.69,1.83-5.533q.177-.4.353-.815a2.922,2.922,0,0,0,.054-1.969c19.238,11.145,50.809,10.6,68.688-2.815,2.738-2.055,2.383-6.237-1.156-7.206-13.1-3.588-22.261,5.366-34,9.216a4.16,4.16,0,0,0-.382.166c-10.5-.284-21.233-2.689-31.3-4.924a2.918,2.918,0,0,0-3.356,3.881,2.279,2.279,0,0,0-1.5.031,10.078,10.078,0,0,0-3.04,1.682c-7.158-2.349-14.826-2.254-22.35-2.227-8.418.032-18.838-2.92-25.222,3.986-1.443,1.561-.372,4.609,1.959,4.366,2.538-.264,4.787-2.069,7.263-1.771,4.515.548,9.118.59,13.659.705,5.278.134,10.6-.3,15.821.574a45.925,45.925,0,0,1,5.15,1.282,10.764,10.764,0,0,0,.374,4.089c1.755,6.049,8.754,9.688,14.022,12.035a90.7,90.7,0,0,0,22.427,6.3c5.3.855,12.037,2.034,17.23-.041,4.526,7.346,14.706,5.811,20.869,1.409a18.581,18.581,0,0,0,7.038-9.689,11.034,11.034,0,0,0,.428-4.264c7.063-4.9,11.993-13.052,19.093-18.068,4.462-3.154,10.062-4.236,14.571-7.4,3.169-2.222,5.278-5.924,6.508-9.747,1.711-.683,3.391-1.44,5.087-2.177,6.4,7.174,14.1,14.919,22.246,4.939,4.254-5.211,7.484-12.2,10.578-18.156a39.666,39.666,0,0,0,2.664-6.064c7.308-8.977,12.33-20.742,15.939-31.163,2.709-7.822,4.585-17.634,3.687-26.739a36.068,36.068,0,0,0,14.027-2.928c1.2,2.815,2.466,5.6,3.856,8.383,2.429,4.86,4.522,10.546,7.8,14.913.882,1.174,2.524,2.251,4.077,1.625.277-.128.718-.34,1.087-.535,7.215,2.559,10.037-10.7,9.489-15.63-.624-5.612-2.46-11.047-4.242-16.374-.593-1.775-1.411-3.6-2.211-5.438,7.189-2.021,13.7-7.745,14.924-14.411,4.934-2.087,9.988-5.848,12.526-10.63C431.05,746.951,425.013,738.66,422.923,735.4Z" fill="#ccc"/>
      </g>
      <g id="Group_5" data-name="Group 5">
        <path id="Path_18" data-name="Path 18" d="M207.341,926.307c-1.379-1.224-4.19.077-3.337,2.044,1.08,2.495,3.355,6.04,5.074,9.705A2.468,2.468,0,0,0,207.335,941c2.923,12.968-5.871,27.473-14.427,36.629-6.218,6.655-14.636,3.474-22.328.412a2,2,0,0,0-.031-2.314c-2.173-3.011-6.056-3.672-9.507-4.2a88.246,88.246,0,0,0-13.5-1.188c-5.048-2.3-9.322-5.59-11.783-11.225a1.252,1.252,0,0,0,.851-1.188c-.173-2.356-.462-4.685-.577-7.046-.118-2.457.166-4.92.01-7.371a2,2,0,0,0-3.427-1.358c-.6-5.935-1.46-11.8-4.662-16.5a.547.547,0,0,0-1.008.3c.093,6.791,1.268,13.772,2.02,20.525.724,6.506,1.846,12.952,4.99,18.76,5.96,11.017,23.373,13.042,33.993,16.617,11.506,3.872,20.277,7.9,29.748-2.235a61.8,61.8,0,0,0,10.424-15.279c4.67-5,9.167-9.975,10.3-17.265C219.747,938.548,213.148,931.47,207.341,926.307Zm4.23,28.471c.012-.048.022-.1.034-.144.032-.028.07-.052.1-.08C211.663,954.631,211.615,954.7,211.571,954.778Z" fill="#ccc"/>
        <g id="Group_4" data-name="Group 4">
          <path id="Path_19" data-name="Path 19" d="M198.639,975.126c3.133-6.964,8.248-18.814,13.523-22.586s9.3-15.661-2.671-28.751-33.052-23.632-45.351-23.632-38.07,12.558-36.9,25.314,8.784,22.712,7.028,29.742-.586,15.26,16.984,15.828,17.571,11.7,29.285,13.456S194.975,983.266,198.639,975.126Z" fill="#dd8b52"/>
          <path id="Path_20" data-name="Path 20" d="M167.653,906.454c-10.075-.864-25.917,6.6-25.917,23.505s19.767,20.531,23.721,28.6,13.178,11,22.4,6.021,17.786-18.156,21.631-19.474,4.408-20.675-6.635-21.319S183.027,907.771,167.653,906.454Z" fill="#ffaf78"/>
          <path id="Path_21" data-name="Path 21" d="M185.663,923.789c-7.876-6.132-17.57-9.213-26.8-2.074s-.026,29.911,13.385,30.825S196.645,932.34,185.663,923.789Z" fill="#ffc7a1"/>
          <path id="Path_22" data-name="Path 22" d="M172.252,923.789c-8.112.277-10.749,5.769-7.235,10.25s15.814-1.406,17.571,0C180.831,932.633,176.867,923.632,172.252,923.789Z" fill="#fff"/>
          <path id="Path_23" data-name="Path 23" d="M150.961,964.67c-7.605,8.545-14.935-6.53-9.224-13.851C144.438,947.355,159.746,954.8,150.961,964.67Z" fill="#ffaf78"/>
          <path id="Path_24" data-name="Path 24" d="M163.258,964.568c0-.015-.01-.026-.015-.041a2.627,2.627,0,0,0-.169-1.36,4.448,4.448,0,0,0-2.09-2.4,2.294,2.294,0,0,0-.437-.144c-.025-.018-.044-.038-.07-.055a2.04,2.04,0,0,0-2.935,1.339,5.048,5.048,0,0,0,.56,3.483c0,.009,0,.016,0,.025a2.1,2.1,0,0,0,2.11,1.991,3.247,3.247,0,0,0,2.133-.479A2.143,2.143,0,0,0,163.258,964.568Z" fill="#ffaf78"/>
          <path id="Path_25" data-name="Path 25" d="M146.286,945.525c-2.305,0-2.195,3.567.1,3.567S148.585,945.525,146.286,945.525Z" fill="#ffaf78"/>
          <g id="Group_3" data-name="Group 3">
            <path id="Path_26" data-name="Path 26" d="M164.447,945.051s-9.425-11.228-7.187-14.954c2.636-4.392,6.827,8.1,6.827,8.1s2.808-14.619,6.635-13.035-1,14.416-1,14.416,7.572-8.92,9.277-6.262C180.049,934.953,171.735,946.966,164.447,945.051Z" fill="#008d00"/>
            <path id="Path_27" data-name="Path 27" d="M164.447,945.051s-7.509-10.094-6.053-11.723c2.211-2.474,6.158,7.1,6.158,7.1s1.542-12.773,5.368-11.189-1.381,11.739-1.381,11.739,6.536-8.063,8.241-5.4C177.829,937.21,170.645,946.42,164.447,945.051Z" fill="#00b400"/>
          </g>
        </g>
      </g>
      <g id="Group_29" data-name="Group 29">
        <path id="Path_28" data-name="Path 28" d="M206.462,984s-8.153,25.9-4.8,33.582,38.569,16.878,47.4,29,36.84,19.538,65.568,13.039,106.049-35.551,118.241-42.04,28.74-23.956,39.713-53.629,36.533-82.031,35.36-93.457S485.5,801.97,477.163,797.56,349.4,886.436,313.422,921.964,218.117,955.733,206.462,984Z" fill="#ccc"/>
        <g id="Group_28" data-name="Group 28">
          <path id="Path_29" data-name="Path 29" d="M477.163,797.56c-6.794-6.56-44.988-14.7-55.194-12.821s-37.031,33.237-46.681,41.063-53.256,25.067-63.209,35.807-36.33,60.4-43.286,64.974-51.9,34.631-59.4,44.449-2.6,36.238-1.341,41.081,44.478,25.248,50.46,29.994,16.965,12.369,21.625,12.854,133.392-25.545,157.34-51.9,63.668-130.567,63.961-144.67S489.467,809.443,477.163,797.56Z" fill="#821010"/>
          <path id="Path_30" data-name="Path 30" d="M224.111,1004.954c9.749,6.754,30.582,17.322,46.833,19.606s54.941,3.962,74.989,3.7,74.931-23.985,91.22-44.664,47.073-78.71,50.511-106.028-12.445-61.363-16.9-69.482-42.694-19.762-49.005-15.709-39.543,34.742-44.75,39.5-56.23,25.347-62.384,33.538-39.65,50.18-43.688,59.111-50.39,41.2-53.327,46.78S218.109,1000.795,224.111,1004.954Z" fill="#a31d1d"/>
          <g id="Group_6" data-name="Group 6">
            <path id="Path_31" data-name="Path 31" d="M428.022,800.091s44.695,28.8,51.608,75.457C479.63,875.549,466.745,835.339,428.022,800.091Z" fill="#701919"/>
            <path id="Path_32" data-name="Path 32" d="M390.074,819.917s53.482,25.63,67.562,101.166C457.636,921.083,429.724,846.655,390.074,819.917Z" fill="#701919"/>
            <path id="Path_33" data-name="Path 33" d="M350.357,850.292s29.964,11.957,48.723,41,21.534,75.853,21.534,75.853S410.681,904.279,350.357,850.292Z" fill="#701919"/>
            <path id="Path_34" data-name="Path 34" d="M301.443,895.833s63.607,40.2,69.885,103.861C371.328,999.695,349.777,946.216,301.443,895.833Z" fill="#701919"/>
            <path id="Path_35" data-name="Path 35" d="M270.916,934.46s45.1,30.612,48.791,79.874C319.707,1014.334,302.552,964.258,270.916,934.46Z" fill="#701919"/>
            <path id="Path_36" data-name="Path 36" d="M240.221,957.758s24.828,21.671,22.422,56.044C262.643,1013.8,258.859,987.967,240.221,957.758Z" fill="#701919"/>
          </g>
          <path id="Path_37" data-name="Path 37" d="M347.016,1006.582c-8.781-1.779-16.387,15.958-31.932,12.57s-22.8-12.841-36.469-11.684-31.409,7.55-41.116-12.306,6-40.594,21.414-47.232,32.671-23.569,32.856-38.384S308.023,883.565,320.1,880.7s17.115-22.947,31-26.211,37.331-7.884,43.633-23.126,14.383-25,25.706-14.986,30.5-4.475,41.639,7.286,5.312,39.42,3.028,55.669,12.408,24.849-3.229,37.94-24.509,30.42-25.264,43.3-16.034,29.538-33.05,28.941S394.88,1016.284,347.016,1006.582Z" fill="#ce2020" opacity="0.7" style="mix-blend-mode: overlay;isolation: isolate"/>
          <g id="Group_19" data-name="Group 19">
            <g id="Group_7" data-name="Group 7">
              <path id="Path_38" data-name="Path 38" d="M221.131,1022.209l1.682-.258c.529-.044,1.167-.219,1.893-.354.727-.12,1.537-.321,2.42-.539a93.97,93.97,0,0,0,12.729-3.937s-.51.479-1.448,1.26a21.8,21.8,0,0,1-4.227,2.467C230.619,1022.487,225.377,1023.556,221.131,1022.209Z" fill="#5e1616"/>
            </g>
            <g id="Group_8" data-name="Group 8">
              <path id="Path_39" data-name="Path 39" d="M212.686,1018.385s.45-.178,1.192-.421a9.081,9.081,0,0,0,1.3-.541,14.691,14.691,0,0,0,1.616-.8c2.346-1.188,5.3-3.207,8.864-4.519a26.04,26.04,0,0,1-3.643,3.5,15.693,15.693,0,0,1-4.207,2.437A8.255,8.255,0,0,1,212.686,1018.385Z" fill="#5e1616"/>
            </g>
            <g id="Group_9" data-name="Group 9">
              <path id="Path_40" data-name="Path 40" d="M256.934,1040.672l.75.239a15.583,15.583,0,0,0,2.132.545,49.387,49.387,0,0,0,7.815.726,72.418,72.418,0,0,0,11.04-.577,34.544,34.544,0,0,0,6.039-1.319,11.808,11.808,0,0,0,5.446-3.171l-.5.727a8.194,8.194,0,0,1-1.727,1.816,20.978,20.978,0,0,1-7.975,3.426,39.273,39.273,0,0,1-11.515.844C264.42,1043.6,260.138,1042.825,256.934,1040.672Z" fill="#5e1616"/>
            </g>
            <g id="Group_10" data-name="Group 10">
              <path id="Path_41" data-name="Path 41" d="M310.484,1046.249l1.281-.367a5.5,5.5,0,0,0,1.367-.523l.807-.35.838-.523a33.5,33.5,0,0,0,3.795-2.789c1.349-1.131,2.821-2.375,4.456-3.519,0,0-.255.507-.74,1.328a21.258,21.258,0,0,1-2.257,3.115,12.708,12.708,0,0,1-4.121,3.2A7.245,7.245,0,0,1,310.484,1046.249Z" fill="#5e1616"/>
            </g>
            <g id="Group_11" data-name="Group 11">
              <path id="Path_42" data-name="Path 42" d="M438.145,1001.362a35.568,35.568,0,0,1-.08-5.013c.181-3.014.6-6.734,1.138-10.751,0,0,.176.538.414,1.483a15.028,15.028,0,0,1,.583,3.9c.02.794.016,1.645-.022,2.527-.082.867-.208,1.759-.377,2.654A20.624,20.624,0,0,1,438.145,1001.362Z" fill="#5e1616"/>
            </g>
            <g id="Group_12" data-name="Group 12">
              <path id="Path_43" data-name="Path 43" d="M481.566,805.767l-.869-.052a8.18,8.18,0,0,0-2.075.274,27.313,27.313,0,0,0-6.033,2.337,8.768,8.768,0,0,1,.44-.922,6.183,6.183,0,0,1,1.814-1.907,6.452,6.452,0,0,1,3.334-1.179A3.925,3.925,0,0,1,481.566,805.767Z" fill="#5e1616"/>
            </g>
            <g id="Group_13" data-name="Group 13">
              <path id="Path_44" data-name="Path 44" d="M501.4,857.824l-.185-.44a9.632,9.632,0,0,0-.544-1.207,16.987,16.987,0,0,0-2.646-3.776,64.245,64.245,0,0,0-4.74-4.584,54.732,54.732,0,0,1-5.539-5.494l1.775,1.032c1.1.656,2.655,1.567,4.369,2.786a23.153,23.153,0,0,1,5.116,4.781A10.509,10.509,0,0,1,501.4,857.824Z" fill="#5e1616"/>
            </g>
            <g id="Group_14" data-name="Group 14">
              <path id="Path_45" data-name="Path 45" d="M500.6,848.961a18.747,18.747,0,0,1-3.124-1.62,19.487,19.487,0,0,1-5.584-5.172,19.486,19.486,0,0,1,3.527,1.546A12.063,12.063,0,0,1,500.6,848.961Z" fill="#5e1616"/>
            </g>
            <g id="Group_15" data-name="Group 15">
              <path id="Path_46" data-name="Path 46" d="M424.462,783.908s-.16.237-.437.584c-.138.173-.306.373-.5.583a3.348,3.348,0,0,0-.59.736,7.516,7.516,0,0,1-.672.841c-.27.265-.417.65-.694.963-.6.615-.984,1.409-1.8,2.208a6.106,6.106,0,0,1-.068-.806,4.492,4.492,0,0,1,.3-2.065A4.351,4.351,0,0,1,424.462,783.908Z" fill="#5e1616"/>
            </g>
            <g id="Group_16" data-name="Group 16">
              <path id="Path_47" data-name="Path 47" d="M375.309,826.441s-.066.345-.221.9c-.124.574-.475,1.284-.694,2.208a55.413,55.413,0,0,1-2.431,6.5s-.1-.369-.2-1.013a8.066,8.066,0,0,1-.073-2.633A7.769,7.769,0,0,1,375.309,826.441Z" fill="#5e1616"/>
            </g>
            <g id="Group_17" data-name="Group 17">
              <path id="Path_48" data-name="Path 48" d="M205.727,988.3s-.007-.433.044-1.2a8,8,0,0,1,.207-1.37,9.79,9.79,0,0,1,.485-1.73,14.9,14.9,0,0,1,5.806-7.43s-.877,1.814-2.093,4.114A79.168,79.168,0,0,1,205.727,988.3Z" fill="#5e1616"/>
            </g>
            <g id="Group_18" data-name="Group 18">
              <path id="Path_49" data-name="Path 49" d="M207.147,1003.676a3.733,3.733,0,0,1,.6-.87c.389-.27.683-.544,1.8-.034a2.111,2.111,0,0,1-.4,1.205C208.806,1004.594,207.809,1004.68,207.147,1003.676Z" fill="#5e1616"/>
            </g>
          </g>
          <g id="Group_20" data-name="Group 20">
            <path id="Path_50" data-name="Path 50" d="M401.873,864.5c-5.768,1.016.912-8.739.912-8.739S406.073,863.757,401.873,864.5Z" fill="#0d420d"/>
            <path id="Path_51" data-name="Path 51" d="M409.028,890.564s-4.239-8.026,5.055-7.129C418,883.814,412.849,892.139,409.028,890.564Z" fill="#0d420d"/>
            <path id="Path_52" data-name="Path 52" d="M348.11,871.846s-7.731,6.368-.887,8.5S351.483,873.374,348.11,871.846Z" fill="#0d420d"/>
            <path id="Path_53" data-name="Path 53" d="M331.309,903.07s4.767-7.747,6.716-8.722S335.909,904.138,331.309,903.07Z" fill="#0d420d"/>
            <path id="Path_54" data-name="Path 54" d="M304.617,944.451s-4.724-11.164,1.249-11.977C305.866,932.474,310.043,943.25,304.617,944.451Z" fill="#0d420d"/>
            <path id="Path_55" data-name="Path 55" d="M342.435,926.262s8.5-8.778,11.484-3.168C353.92,923.094,346.183,929.841,342.435,926.262Z" fill="#0d420d"/>
            <path id="Path_56" data-name="Path 56" d="M426.935,929.119s1.788-11.511,7.566-10.448S431.795,933.338,426.935,929.119Z" fill="#0d420d"/>
            <path id="Path_57" data-name="Path 57" d="M446.011,864.767s-5.737-12.754,1.618-15.521S449.066,863.7,446.011,864.767Z" fill="#0d420d"/>
            <path id="Path_58" data-name="Path 58" d="M428.71,823.945s-4.4,10.5-1.161,11.135S430.651,828.3,428.71,823.945Z" fill="#0d420d"/>
            <path id="Path_59" data-name="Path 59" d="M380.286,958.583s-4.609-12.06,3.016-11.981C387.808,946.648,384.485,957.843,380.286,958.583Z" fill="#0d420d"/>
            <path id="Path_60" data-name="Path 60" d="M385.143,896.317s-10.244,6.632-7.815,11.573S387.7,901.3,385.143,896.317Z" fill="#0d420d"/>
            <path id="Path_61" data-name="Path 61" d="M331.951,990.29s-4.509-8.714,1.906-11.874S334.9,987.652,331.951,990.29Z" fill="#0d420d"/>
            <path id="Path_62" data-name="Path 62" d="M281.724,988.939s1.033-15.556,5.141-15.423S285.426,987.323,281.724,988.939Z" fill="#0d420d"/>
            <path id="Path_63" data-name="Path 63" d="M265.256,960.857s3.722,3.483,2.2,6.831C267.452,967.688,263.07,965.238,265.256,960.857Z" fill="#0d420d"/>
            <path id="Path_64" data-name="Path 64" d="M243.067,986.32s8.4-.911,7.614,6.673C250.681,992.993,244.324,990.574,243.067,986.32Z" fill="#0d420d"/>
            <path id="Path_65" data-name="Path 65" d="M409.738,975.435s-3.591-5.086.972-9.32C410.71,966.114,413.076,971.66,409.738,975.435Z" fill="#0d420d"/>
          </g>
          <g id="Group_21" data-name="Group 21">
            <path id="Path_66" data-name="Path 66" d="M321.323,931.489c-5.478-.4-15.91,29.359,1.284,30.149S331.4,932.231,321.323,931.489Z" fill="#ef2525" opacity="0.7" style="mix-blend-mode: overlay;isolation: isolate"/>
            <path id="Path_67" data-name="Path 67" d="M321.392,964.049c-10.275-1.5-7.441,15.638-.7,15.99S330.665,965.4,321.392,964.049Z" fill="#ef2525" opacity="0.7" style="mix-blend-mode: overlay;isolation: isolate"/>
            <path id="Path_68" data-name="Path 68" d="M296.192,982.466c-9.516.631-6.246,24.123,4.261,24.52S306.2,981.8,296.192,982.466Z" fill="#ef2525" opacity="0.7" style="mix-blend-mode: overlay;isolation: isolate"/>
            <path id="Path_69" data-name="Path 69" d="M382.52,852.061c-9.183,3.422,2.04,22.3,10.872,22.156S389.863,849.326,382.52,852.061Z" fill="#ef2525" opacity="0.7" style="mix-blend-mode: overlay;isolation: isolate"/>
            <path id="Path_70" data-name="Path 70" d="M407,865.2c-4.59-.631-4.223,6.926-.664,6.372S412.126,865.906,407,865.2Z" fill="#ef2525" opacity="0.7" style="mix-blend-mode: overlay;isolation: isolate"/>
            <path id="Path_71" data-name="Path 71" d="M414.984,855.09c-3.422,1.432-2.7,15.955,3.2,21.758s-.385,39.074,10.081,39.479,17.048-1.721,12.921-16.148S423.7,851.442,414.984,855.09Z" fill="#ef2525" opacity="0.7" style="mix-blend-mode: overlay;isolation: isolate"/>
            <path id="Path_72" data-name="Path 72" d="M383.436,995.658c-5.778,4.171-20.506-20.713-10.185-28.715S395.756,986.765,383.436,995.658Z" fill="#ef2525" opacity="0.7" style="mix-blend-mode: overlay;isolation: isolate"/>
            <path id="Path_73" data-name="Path 73" d="M365.222,875.745c-8.966-2.219-13.742,22.157-.686,25.139S376.982,878.654,365.222,875.745Z" fill="#ef2525" opacity="0.7" style="mix-blend-mode: overlay;isolation: isolate"/>
            <path id="Path_74" data-name="Path 74" d="M333.825,878.948c-3.64-1.278-4.627,4.558-.678,6.071S340.4,881.257,333.825,878.948Z" fill="#ef2525" opacity="0.7" style="mix-blend-mode: overlay;isolation: isolate"/>
            <path id="Path_75" data-name="Path 75" d="M287.6,932.269c-5.9-1.208-4.748,10.542-1.074,10.3S293.5,933.475,287.6,932.269Z" fill="#ef2525" opacity="0.7" style="mix-blend-mode: overlay;isolation: isolate"/>
            <path id="Path_76" data-name="Path 76" d="M293.518,971.843c-6.326,2.654-.361,5.8,1.485,5.524S295.754,970.906,293.518,971.843Z" fill="#ef2525" opacity="0.7" style="mix-blend-mode: overlay;isolation: isolate"/>
            <path id="Path_77" data-name="Path 77" d="M255.533,964.434a2.607,2.607,0,0,0-2.323-.82,2.478,2.478,0,0,0-2.023,2.25,8.315,8.315,0,0,0,.221,1.9c.036.166.076.331.117.5a2.823,2.823,0,0,0,.326,1.033,2.46,2.46,0,0,0,2.6,1.333h.007a2.248,2.248,0,0,0,1.738-1.414C257.5,967.853,256.926,965.692,255.533,964.434Z" fill="#ef2525" opacity="0.7" style="mix-blend-mode: overlay;isolation: isolate"/>
            <path id="Path_78" data-name="Path 78" d="M464.919,853.017a5.4,5.4,0,0,0-4.772-6.128c-3.977-.138-4.523,4.216-3.866,7.7a6.931,6.931,0,0,0,.264,1.792,3.3,3.3,0,0,0,1.083,1.7,2.736,2.736,0,0,0,4.464-.356A7.3,7.3,0,0,0,464.919,853.017Z" fill="#ef2525" opacity="0.7" style="mix-blend-mode: overlay;isolation: isolate"/>
            <path id="Path_79" data-name="Path 79" d="M408.356,873.761a8.793,8.793,0,0,0-4.276.58c-2.973-.052-4.72,2.868-4.3,5.571a3.015,3.015,0,0,0,2.715,2.439c3.631.357,7.2-1.039,8.4-4.732A2.949,2.949,0,0,0,408.356,873.761Z" fill="#ef2525" opacity="0.7" style="mix-blend-mode: overlay;isolation: isolate"/>
            <path id="Path_80" data-name="Path 80" d="M410.789,856.033c-.017-.09-.038-.179-.058-.27l-.086-.268a.584.584,0,0,0-.019-.141c-.055-.351-.156-.7-.21-1.054-.376-2.416-3.748-2.492-4.557-.341-.67,1.782-.571,3.371.979,4.665C408.579,860.077,411.217,858.066,410.789,856.033Z" fill="#ef2525" opacity="0.7" style="mix-blend-mode: overlay;isolation: isolate"/>
            <path id="Path_81" data-name="Path 81" d="M339.1,914.909a6.472,6.472,0,0,0-1.23-3.735,6.6,6.6,0,0,0-3.534-1.686,2.515,2.515,0,0,0-3.279,2.158,6.012,6.012,0,0,0,.66,3.658,4.786,4.786,0,0,0,1.438,1.571c.208.13.428.242.65.353a5.1,5.1,0,0,0,2.415.886A2.753,2.753,0,0,0,339.1,914.909Z" fill="#ef2525" opacity="0.7" style="mix-blend-mode: overlay;isolation: isolate"/>
            <path id="Path_82" data-name="Path 82" d="M314.658,932.5a2.339,2.339,0,0,0-3.12-1.112,3.358,3.358,0,0,0-1.354,1.2,2.588,2.588,0,0,0-.233.539c-.01.015-.023.022-.034.038a3.718,3.718,0,0,0-.6,1.553,2.247,2.247,0,0,0,2.053,2.4,3.135,3.135,0,0,0,2.671-1.58A3.029,3.029,0,0,0,314.658,932.5Z" fill="#ef2525" opacity="0.7" style="mix-blend-mode: overlay;isolation: isolate"/>
          </g>
          <path id="Path_83" data-name="Path 83" d="M359.146,967.013c-2.281,2.227-5.067,5.339-8.312,2.767s-2.795-11.716.05-17.56,9.353-13.721,8-16.819-2.777-6.029-6.83-7.352-6.878-2.511-9.366-6.683-4.724-9.561-.6-11.1,7.671-1.839,8.12-5.077.81-12.685,5.578-13.437c9.863-1.556,10.04,14.674,13.385,13.927s6.082-3.031,5.523-8.455,3.738-9.412,6.679-8.172,3.669,11.484,6.453,7.508,7.155-11.4,11.922-10.58,9.344,4.06,9.43,8.754,10.024,5.03,7.607,10.613-2.547,10.7-1.444,13.852-2.7,10.676-9.871,11.1-6.9,3.719-.568,7.18,5.459,10.09,1.346,12.369-4.1,9.61-11.556,9.135-14.271-11.221-16.859-11.024-12.95,1.362-14.683,5.543S362.707,963.535,359.146,967.013Z" fill="#821010" opacity="0.7"/>
          <g id="Group_26" data-name="Group 26">
            <path id="Path_84" data-name="Path 84" d="M363.45,940.177s-2.24-12.2.14-15.78-1.278,6.082,1.38,11.643Z" fill="#008d00"/>
            <path id="Path_85" data-name="Path 85" d="M364.527,940.289s6.919-3.591,16.959-1.365,1.351,1.893-1.441,1.314-13.816.121-20.406,7.6Z" fill="#008d00"/>
            <g id="Group_22" data-name="Group 22">
              <path id="Path_86" data-name="Path 86" d="M363.169,928.424s13.278-6.444,14.963-11.31.09-10.555-4.617-8.579-7.693,8.889-7.693,8.889.312-24.267-8.8-24.041,3.633,26.2,3.633,26.2-12.145-11.483-16.3-7.2S350.122,927.014,363.169,928.424Z" fill="#008d00"/>
              <path id="Path_87" data-name="Path 87" d="M363.169,928.424S374.025,922.865,375.71,918s2.126-7.735-2.581-5.758-7.7,8.917-7.7,8.917,1.312-22.621-7.439-20.052c-5.791,1.7,5.179,21.362,5.179,21.362s-11.639-11.452-15.537-6.941C344.875,918.721,350.122,927.014,363.169,928.424Z" fill="#00b400"/>
            </g>
            <g id="Group_23" data-name="Group 23">
              <path id="Path_88" data-name="Path 88" d="M383.535,919.273s-9.943-17.985-5.282-25.656,8.21,17.672,7.961,18.326,2.072-20.464,14.829-21.9-4.407,13.39-5.045,16.7c0,0,13.8-8.022,17.707-4.583s-12.134,11.684-15.253,12.73c0,0,12.521.168,13.573,3.375.877,2.671-.577,5.533-6.6,4.933a85.385,85.385,0,0,1-15.227-3.224s14.76,5.277,15.074,7.926S388.311,924.653,383.535,919.273Z" fill="#008d00"/>
              <path id="Path_89" data-name="Path 89" d="M383.853,919.051s-9.954-17.719-3.723-22.4c3.028-2.273,6.349,16.419,6.132,16.986s3.98-20.888,12.79-19.966c6.776.708-4.415,13.092-4.971,15.962,0,0,11.75-8.3,15.141-5.316s-12.405,10.457-15.113,11.365c0,0,13.562-.3,14.476,2.485.761,2.32-2.533,3.41-7.76,2.887-6.54-.653-12.14-1.705-12.14-1.705s14.1,6.18,14.04,7.183C402.6,928.848,388,923.723,383.853,919.051Z" fill="#00b400"/>
            </g>
            <g id="Group_24" data-name="Group 24">
              <path id="Path_90" data-name="Path 90" d="M380.208,938.669s13.978-13.954,19.24-11.382c6.2,3.03-10.08,10.1-10.08,10.1s19.948,2.074,18.266,7.4-19.467.328-19.467.328,12.85,9.13,9.481,11.726C395.574,958.438,378.485,948.673,380.208,938.669Z" fill="#008d00"/>
              <path id="Path_91" data-name="Path 91" d="M380.208,938.669s12.678-11.25,15.034-9.485c3.578,2.681-8.818,9.09-8.818,9.09s17.324.587,15.642,5.908-15.919-.491-15.919-.491,11.582,7.836,8.212,10.432C392.286,955.721,379.091,947.145,380.208,938.669Z" fill="#00b400"/>
            </g>
            <g id="Group_25" data-name="Group 25">
              <path id="Path_92" data-name="Path 92" d="M384.726,916s-31.052,18.256-33.337,48.64c0,0,4.844,6.214,6.429.67s5.456-35.352,31.144-48.867C388.962,916.443,390.026,912.361,384.726,916Z" fill="#008d00"/>
              <path id="Path_93" data-name="Path 93" d="M358.348,944.844a53.811,53.811,0,0,0-5.554,14.3c-.593,2.364,2.957,3.647,3.621,1.246,1.332-4.8,3.665-9.255,4.909-14.071C361.774,944.584,359.373,943.113,358.348,944.844Z" fill="#00b400"/>
            </g>
          </g>
          <g id="Group_27" data-name="Group 27">
            <path id="Path_94" data-name="Path 94" d="M219.153,986.763a38.864,38.864,0,0,1,.173-14.878.359.359,0,0,0-.679-.233,23.37,23.37,0,0,0-1.508,10.99c.259,4.328.485,9.86,2.536,13.759.245.463,1.048.389,1.057-.2C220.778,993.075,219.645,989.858,219.153,986.763Z" fill="#d83d3d"/>
            <path id="Path_95" data-name="Path 95" d="M228.43,1006.1a7.6,7.6,0,0,0-2.394-2.078c-1-.758-2.052-1.451-3.04-2.228-.264-.207-.6.192-.386.436,1.373,1.533,3.03,4.764,5.466,4.561A.491.491,0,0,0,228.43,1006.1Z" fill="#d83d3d"/>
            <path id="Path_96" data-name="Path 96" d="M271.274,1022.624c-4.7-2.383-9.817-3.448-14.908-4.708a110.665,110.665,0,0,1-16.749-6.042c-.351-.15-.58.37-.289.578,8.773,6.289,21.066,9.669,31.705,10.868C271.394,1023.36,271.623,1022.8,271.274,1022.624Z" fill="#d83d3d"/>
            <path id="Path_97" data-name="Path 97" d="M294.966,1026.018l-.35-.022c-.111-.006-.108.182.006.175l.347-.022A.066.066,0,0,0,294.966,1026.018Z" fill="#d83d3d"/>
            <path id="Path_98" data-name="Path 98" d="M325.938,1026.89c-4.447-.38-9.114.646-13.627.615a76.341,76.341,0,0,1-15.549-1.306.24.24,0,0,0-.109.466c8.755,2.5,20.876,5.322,29.607,1.314C326.861,1027.7,326.445,1026.932,325.938,1026.89Z" fill="#d83d3d"/>
            <path id="Path_99" data-name="Path 99" d="M294.917,1025.555c-.391-.79-2.018-.57-2.745-.538a.37.37,0,0,0,.022.74,11.288,11.288,0,0,1,1.326.124c.427.071.768.313,1.2.188A.352.352,0,0,0,294.917,1025.555Z" fill="#d83d3d"/>
            <path id="Path_100" data-name="Path 100" d="M273.508,922.66c-5.959,4.389-10.693,10.556-16.092,15.629-6.081,5.711-14.01,9.061-19.654,15.278-.1.114.048.321.176.217,12.266-9.809,27.31-16.984,36.164-30.561A.427.427,0,0,0,273.508,922.66Z" fill="#d83d3d"/>
            <path id="Path_101" data-name="Path 101" d="M286.106,1020.6c-2.257-2.145-5.457-1.307-8.242-1.2a1.474,1.474,0,0,0-.962,2.525,7.485,7.485,0,0,0,1.993,1.263c1.62,1.83,5.033,1.47,6.909.256A1.821,1.821,0,0,0,286.106,1020.6Z" fill="#d83d3d"/>
          </g>
        </g>
      </g>
      <g id="Group_30" data-name="Group 30">
        <path id="Path_102" data-name="Path 102" d="M152.309,941.8s-4.953-8.978,0-10.186C152.309,931.614,156.768,940.314,152.309,941.8Z" fill="#0d420d"/>
        <path id="Path_103" data-name="Path 103" d="M197.324,943.259s-3.553-6.441,0-7.307C197.324,935.952,200.523,942.192,197.324,943.259Z" fill="#0d420d"/>
        <path id="Path_104" data-name="Path 104" d="M174.9,924.139s6.383-8.131,9.383-3.674C184.28,920.465,178.365,926.82,174.9,924.139Z" fill="#0d420d"/>
        <path id="Path_105" data-name="Path 105" d="M174.2,953.579s-4.557-6.935.561-10.155S176.448,951.1,174.2,953.579Z" fill="#0d420d"/>
      </g>
      <g id="Group_77" data-name="Group 77">
        <g id="Group_76" data-name="Group 76">
          <g id="Group_45" data-name="Group 45">
            <g id="Group_31" data-name="Group 31">
              <path id="Path_106" data-name="Path 106" d="M176.687,752.677s14.861,1.555,18.476,4.274c0,0-4.267,51.936,1.773,61.734s23.343,31.876,23.343,31.876-7.043,9.6-9.172,10.217-28.093-27.838-32.527-37.4S174.676,758.381,176.687,752.677Z" fill="#d89f00"/>
              <path id="Path_107" data-name="Path 107" d="M177.176,753.779l10.1,3.175s-5.153,49.8-2.546,60.108,23.884,31.427,23.884,31.427l-3.661,3.376s-20.809-17.6-24.8-29.961S177.176,753.779,177.176,753.779Z" fill="#e0b500"/>
            </g>
            <g id="Group_32" data-name="Group 32">
              <path id="Path_108" data-name="Path 108" d="M225.246,875.168s-11.49-5.325-11.974-7.492,24.962-28.485,33.594-32.9c12.394-6.342,66.4-11.323,75.005-8.3,0,0,1.068,7.8-.14,10.485s-46.328,3.025-59.132,8.749S225.246,875.168,225.246,875.168Z" fill="#d89f00"/>
              <path id="Path_109" data-name="Path 109" d="M217.2,868.313s5.583,3.808,7.3,2.569c0,0,33.511-28.047,38.8-29.984s52.338-2.662,56.194-3.9l-.535-8.181s-48.039.8-58.151,5.071S222.641,860.927,217.2,868.313Z" fill="#e0b500"/>
            </g>
            <g id="Group_33" data-name="Group 33">
              <path id="Path_110" data-name="Path 110" d="M209.314,815.782s27.819-32.553,37.487-46.476,15.445-45.83,15.445-45.83,7.993-2.116,10.327-2.195l6.483,2.4s-3.835,46.814-14.208,58.273c-5.106,5.641-33.164,40.243-41.215,46.232C223.634,828.19,210.688,819.946,209.314,815.782Z" fill="#d89f00"/>
              <path id="Path_111" data-name="Path 111" d="M221.912,820.91s34.029-34.362,41.043-48.769,11.495-48.42,11.495-48.42l-10.7,1.787s-6.126,31.336-10.062,38.187-41.353,52.254-41.353,52.254Z" fill="#e0b500"/>
            </g>
            <g id="Group_34" data-name="Group 34">
              <path id="Path_112" data-name="Path 112" d="M333.9,808.315s-11.308-29.484-16.983-48.57c-.6-18.992,14.631-43.089,14.631-43.089s-6.109-9.3-9.016-9.449-23.778,33.35-24.566,53.029c1.725,17.912,14.909,44.418,18.774,48.058C323.633,809.9,333.9,808.315,333.9,808.315Z" fill="#d89f00"/>
              <path id="Path_113" data-name="Path 113" d="M328.015,804.306s-17.259-39.539-16.607-50.143,23.176-47.36,23.176-47.36l-6.1-7.965s-24.414,33.731-26.066,50.508,14.363,57.124,14.363,57.124Z" fill="#e0b500"/>
            </g>
            <g id="Group_35" data-name="Group 35">
              <path id="Path_114" data-name="Path 114" d="M283.57,809.759s17.517-.258,20.872-3.164,5.1-38.926,2.084-56.5-17.672-46.158-17.672-46.158-10.878,5.807-12.841,5.718c0,0,16.079,36.743,15.466,48S283.2,805.683,283.57,809.759Z" fill="#d89f00"/>
              <path id="Path_115" data-name="Path 115" d="M279.369,710.655l4.525-2.9s16.529,31.594,18.929,45.706S297.8,801.6,297.8,801.6l-10.463-1.779s7.091-39.133,6.47-44.065S284.5,720.745,279.369,710.655Z" fill="#e0b500"/>
            </g>
            <g id="Group_36" data-name="Group 36">
              <path id="Path_116" data-name="Path 116" d="M200.59,723.059s35.364-6.871,46.113-12.182,50.656-34.04,52.254-34.077c0,0,5.793,6.676,5.032,9.874,0,0-45.555,39.589-53.915,42.175s-43.494,5.559-48.418,3.627S200.59,723.059,200.59,723.059Z" fill="#d89f00"/>
              <path id="Path_117" data-name="Path 117" d="M201.563,731.325s42.136-2,47.755-3.564,52.235-41.917,52.235-41.917l-4.274-6.169s-47.758,36.827-54.7,38.362-39.618,7.121-39.618,7.121S200.394,725.356,201.563,731.325Z" fill="#e0b500"/>
            </g>
            <path id="Path_118" data-name="Path 118" d="M203.889,831.695s7.363-6.164,8.834-8.263,8.147-48.348,7.7-63.537S206.8,721.241,206.8,721.241l-9.363,4.171-3.339,8.7s7.519,19.732,6.027,29.534-14.008,52.883-14.532,59.847C185.6,823.492,197.455,830.232,203.889,831.695Z" fill="#d89f00"/>
            <g id="Group_37" data-name="Group 37">
              <path id="Path_119" data-name="Path 119" d="M212.917,764.523s1.488,6.55,3.752,8.427,10.862,1.414,10.862,1.414,35.839-22.213,47.807-41.007,19.843-43.94,18.1-47.493l-9.409-6.387-6.829,3.04s-9.253,29.608-17.408,40.451S215.867,760.324,212.917,764.523Z" fill="#d89f00"/>
              <path id="Path_120" data-name="Path 120" d="M226.644,772.372l-3.459-7.769s33.541-25.808,44.242-38.423,17.128-44.408,17.128-44.408l8.886,4.092s-9.43,34.481-21.644,50.129S226.644,772.372,226.644,772.372Z" fill="#e0b500"/>
            </g>
            <g id="Group_38" data-name="Group 38">
              <path id="Path_121" data-name="Path 121" d="M378.142,772.868s-25.26-12.761-38.991-45.6-12.915-51.952-12.2-56.6,6.536-9.644,6.536-9.644,4.064,1.075,5.9,3.142,7.113,9.816,7.113,9.816.511,34.394,11.049,49.416,36.448,31.88,37.927,32.651-1.019,9.032-4.069,10.9S378.142,772.868,378.142,772.868Z" fill="#d89f00"/>
              <path id="Path_122" data-name="Path 122" d="M333.52,665.654s-2.775,4.095-4.835,6.989,2.457,35.208,10.161,50.467,23.017,37.451,36.635,43.22l9.4-8.1a108.8,108.8,0,0,1-36.629-38.082C334,694.789,337.491,679.895,333.52,665.654Z" fill="#e0b500"/>
            </g>
            <path id="Path_123" data-name="Path 123" d="M199,727.974s10.424,20.776,10.161,37.151-8.915,54.043-8.915,54.043l-13.546,2.4s15.187-47.633,15.208-60.118-6.291-26.737-6.291-26.737Z" fill="#e0b500"/>
            <g id="Group_39" data-name="Group 39">
              <path id="Path_124" data-name="Path 124" d="M284.959,867.25s-24.611,27.106-40.377,27.338-49.22-3.624-49.22-3.624-2.562,7.2-2.168,10.247,22.157,11.96,30.169,13.755,43.953-8.15,53.311-18.475,9.973-26.029,10.193-27.788S284.959,867.25,284.959,867.25Z" fill="#d89f00"/>
              <path id="Path_125" data-name="Path 125" d="M195.653,901.311s39.765,11.053,50,7.693,25.628-12,28.834-16.158,6.775-18.253,6.775-18.253a2.7,2.7,0,0,0-3.927.312c-1.773,2.158-6.278,12.07-11.5,15.587s-20.272,7.3-26.319,7.452-38.856-4.086-41.925-4.242S196.776,899.823,195.653,901.311Z" fill="#e0b500"/>
            </g>
            <g id="Group_40" data-name="Group 40">
              <path id="Path_126" data-name="Path 126" d="M150.889,860.587s44.38,30.474,64.863,30.614,47.184-13.675,47.184-13.675,1.625-7.936-.307-13.326c0,0-34,12.006-46.151,9.128s-46.324-16.991-54.313-23.052-12.64-7.866-12.64-7.866S144.014,851.628,150.889,860.587Z" fill="#d89f00"/>
              <path id="Path_127" data-name="Path 127" d="M149.751,843.82s23.682,16.308,30.682,20.079S204,874.645,212.567,876.041s46.148-6.572,46.148-6.572.775,3.494,1.164,6.429-49.218,9.972-53.17,9.613c-9.793-.89-52.287-26.895-55.77-30.464S149.751,843.82,149.751,843.82Z" fill="#e0b500"/>
            </g>
            <g id="Group_41" data-name="Group 41">
              <path id="Path_128" data-name="Path 128" d="M227.751,863.927c1.822.035,50.677-1.046,59.786-5.1s40.956-29,40.956-29l11.619,1.615s-20.473,29.837-44.131,43.3-68.391,5.978-68.391,5.978Z" fill="#d89f00"/>
              <path id="Path_129" data-name="Path 129" d="M232.171,876.91l-2.082-8.222s29.735,2.132,52.344-4.191,45.336-30.162,45.336-30.162l5.75.688s-17.251,23.817-45.732,38.244S232.171,876.91,232.171,876.91Z" fill="#e0b500"/>
            </g>
            <g id="Group_42" data-name="Group 42">
              <path id="Path_130" data-name="Path 130" d="M236.423,835.8s-1.342-15.651-1.641-17.923-47.209,13.331-60.359,21.592-33.785,40.752-36.808,48c0,0,1.287,6.128,3.325,7.466s32.19-37.853,41.871-42.027S231.391,836.012,236.423,835.8Z" fill="#d89f00"/>
              <path id="Path_131" data-name="Path 131" d="M142.254,890.452s29.669-34.045,34.953-37.756,52.978-19.856,52.978-19.856l-.176-13.364s-46.186,13.289-62.279,26.555a189.079,189.079,0,0,0-27.151,40.658Z" fill="#e0b500"/>
            </g>
            <g id="Group_43" data-name="Group 43">
              <path id="Path_132" data-name="Path 132" d="M292.837,877.444a25.594,25.594,0,0,1-13.44,11.369s-18.323-21.188-21.213-47.631S271.337,782.8,271.337,782.8s13.592,8.863,17.434,12.091c0,0-17.965,28.766-17.1,42.586S292.837,877.444,292.837,877.444Z" fill="#d89f00"/>
              <path id="Path_133" data-name="Path 133" d="M279.449,885.038c-.016-.809-16.857-21.488-18.623-47.724s10.451-50.989,10.451-50.989l9.816,7.43s-15.33,27.322-13.759,40.66,21.223,43.96,21.223,43.96Z" fill="#e0b500"/>
            </g>
            <g id="Group_44" data-name="Group 44">
              <path id="Path_134" data-name="Path 134" d="M227.393,775.544s41.165,16.834,53.5,18.489c23.7,3.178,57.489-19.833,61.427-23.992,0,0,5.807,7.685,5.036,11.308s-36.179,25.625-47.351,26.912-28.2,2.079-35.291-.892-38.094-17.78-42.075-19.922S227.393,775.544,227.393,775.544Z" fill="#d89f00"/>
              <path id="Path_135" data-name="Path 135" d="M224.239,784.5l4.539-5.035s33.991,14.625,46.444,16.324,38.784-5.073,50.623-11.869,15.686-8.238,15.686-8.238l1.738,3.9s-29.121,21.149-47.321,24.215S264.093,804.029,224.239,784.5Z" fill="#e0b500"/>
            </g>
          </g>
          <g id="Group_60" data-name="Group 60">
            <g id="Group_46" data-name="Group 46">
              <path id="Path_136" data-name="Path 136" d="M325.3,872.687s-11.57-9.456-13.1-13.713c0,0,32.065-41.077,32.393-52.583s-2.023-39.456-2.023-39.456,11.155-4.16,13.274-3.509,8.209,38.688,6.667,49.119S330.11,869.022,325.3,872.687Z" fill="#e7af00"/>
              <path id="Path_137" data-name="Path 137" d="M325.494,871.5l-6.7-8.2s31.634-38.8,35.112-48.851-2.721-39.38-2.721-39.38l4.914-.813s7.739,26.13,4.287,38.655S325.494,871.5,325.494,871.5Z" fill="#f7c800"/>
            </g>
            <g id="Group_47" data-name="Group 47">
              <path id="Path_138" data-name="Path 138" d="M351.921,743.638s6.683,10.757,5.9,12.834-36.5,10.115-46.139,9.07c-13.841-1.5-61.718-26.969-67.257-34.219,0,0,3.385-7.1,5.87-8.689s40.39,22.895,54.235,25.134S351.921,743.638,351.921,743.638Z" fill="#e7af00"/>
              <path id="Path_139" data-name="Path 139" d="M354.883,753.782s-2.578-6.247-4.692-6.154c0,0-43.407,5.06-48.887,3.777s-45.215-26.494-49.118-27.574l-4.042,7.132s40.6,25.694,51.4,27.67S346.284,756.973,354.883,753.782Z" fill="#f7c800"/>
            </g>
            <g id="Group_48" data-name="Group 48">
              <path id="Path_140" data-name="Path 140" d="M332.65,802.027s-41.119,11.949-56.841,18.282-38.062,29.837-38.062,29.837-7.843-2.616-9.838-3.832l-4.1-5.565s28.9-37.033,43.855-40.921c7.363-1.913,49.808-15.442,59.825-16.033C327.489,783.8,333.787,797.792,332.65,802.027Z" fill="#e7af00"/>
              <path id="Path_141" data-name="Path 141" d="M324.934,790.828s-47.3,10.051-61.074,18.248-36.179,34.171-36.179,34.171l9.921,4.376s22.318-22.835,29.368-26.4,63.245-20.989,63.245-20.989Z" fill="#f7c800"/>
            </g>
            <g id="Group_49" data-name="Group 49">
              <path id="Path_142" data-name="Path 142" d="M224.4,739.9s-6.725,30.854-12.455,49.922c-9.918,16.21-35.877,27.994-35.877,27.994s0,11.127,2.353,12.847,38.178-14.833,49.636-30.851c8.386-15.922,11.91-45.314,10.677-50.477C233.855,744.21,224.4,739.9,224.4,739.9Z" fill="#e7af00"/>
              <path id="Path_143" data-name="Path 143" d="M227.122,746.484s-7.267,42.525-13.632,51.031-45.364,26.876-45.364,26.876l.73,10.007s38.918-14.8,49.505-27.921,19.34-55.636,19.34-55.636Z" fill="#f7c800"/>
            </g>
            <g id="Group_50" data-name="Group 50">
              <path id="Path_144" data-name="Path 144" d="M267.268,766.314s-14.785-9.4-19.183-8.809-25.628,29.739-32.75,46.094-10.556,48.284-10.556,48.284,12.28,1.115,13.873,2.266c0,0,6.721-39.539,13.412-48.616S265.343,769.925,267.268,766.314Z" fill="#e7af00"/>
              <path id="Path_145" data-name="Path 145" d="M216.4,851.469l-5.376-.055s3.518-35.482,9.256-48.6,30.615-37.49,30.615-37.49l7.771,7.229s-27.4,28.823-29.591,33.288S217.644,840.218,216.4,851.469Z" fill="#f7c800"/>
            </g>
            <g id="Group_51" data-name="Group 51">
              <path id="Path_146" data-name="Path 146" d="M289.064,884.328s-33.334-13.66-45.235-15.119-61.028.659-62.384-.187c0,0-1.179-8.758,1.212-11.015,0,0,59.806-8.1,68.216-5.673s39.412,19.221,42.467,23.537S289.064,884.328,289.064,884.328Z" fill="#e7af00"/>
              <path id="Path_147" data-name="Path 147" d="M292.785,876.885s-36.323-21.448-41.878-23.224-66.67,6.377-66.67,6.377l.189,7.5s60.133-4.582,66.779-2.055,37.028,15.788,37.028,15.788S290.487,882.516,292.785,876.885Z" fill="#f7c800"/>
            </g>
            <path id="Path_148" data-name="Path 148" d="M345.92,791.7s-9.539,1.113-11.919,2.061-33.343,35.947-41.305,48.89-9.823,39.788-9.823,39.788l10.116,1.653,7.564-5.441s4.542-20.623,11.168-28,40.73-36.523,44.988-42.059C356.709,808.6,350.494,796.454,345.92,791.7Z" fill="#e7af00"/>
            <g id="Group_52" data-name="Group 52">
              <path id="Path_149" data-name="Path 149" d="M293.907,859.318s2.35-6.292,1.486-9.1-8.3-7.142-8.3-7.142-42.15-1.1-62.469,8.047-40.7,25.844-41.195,29.77l4.361,10.5,7.375,1.205s23.985-19.674,36.751-24.264S289.136,861.208,293.907,859.318Z" fill="#e7af00"/>
              <path id="Path_150" data-name="Path 150" d="M286.737,845.224l-1.37,8.392s-42.2,3.169-58.071,7.844-38.687,27.725-38.687,27.725l-5.183-8.3s26.8-23.651,45.6-30.029S286.737,845.224,286.737,845.224Z" fill="#f7c800"/>
            </g>
            <g id="Group_53" data-name="Group 53">
              <path id="Path_151" data-name="Path 151" d="M189.378,774.17s14.115,24.53,7.576,59.513-17.711,50.519-20.863,54.01-10.756,4.475-10.756,4.475-2.808-3.129-3.21-5.865-.561-12.11-.561-12.11,18.447-29.034,17.882-47.375-12.977-46.652-13.791-48.108,5.809-6.992,9.385-6.883S189.378,774.17,189.378,774.17Z" fill="#e7af00"/>
              <path id="Path_152" data-name="Path 152" d="M167.849,888.285s4.567-1.9,7.876-3.188,17.268-30.781,19.2-47.765,1.309-43.939-6.91-56.235l-12.3,1.613a108.784,108.784,0,0,1,9.724,51.934C183.432,863.666,172.343,874.2,167.849,888.285Z" fill="#f7c800"/>
            </g>
            <path id="Path_153" data-name="Path 153" d="M293.091,881.093S295.776,858,304.982,844.46s37.11-40.287,37.11-40.287l12.64,5.43s-38.834,31.485-45.7,41.913-9.412,25.8-9.412,25.8Z" fill="#f7c800"/>
            <g id="Group_54" data-name="Group 54">
              <path id="Path_154" data-name="Path 154" d="M328.2,726.2s35.45-9.154,48.758-.7,39.157,30.039,39.157,30.039,6.1-4.615,7.436-7.378-11.96-22.156-17.673-28.053-41.216-17.306-54.7-13.81-22.622,16.286-23.772,17.637S328.2,726.2,328.2,726.2Z" fill="#e7af00"/>
              <path id="Path_155" data-name="Path 155" d="M421.552,746.736s-27.179-31.062-37.584-33.87-28.012-4.029-32.97-2.316-15.681,11.541-15.681,11.541a2.7,2.7,0,0,0,3.455,1.894c2.665-.831,11.872-6.646,18.163-6.722s20.955,5.022,26.092,8.214,30.242,24.738,32.721,26.552S419.8,747.363,421.552,746.736Z" fill="#f7c800"/>
            </g>
            <g id="Group_55" data-name="Group 55">
              <path id="Path_156" data-name="Path 156" d="M406.082,796.631S385.7,746.8,368.655,735.444s-46.949-14.46-46.949-14.46-5.712,5.743-7.056,11.31c0,0,35.013,8.621,43.59,17.7s29.4,39.625,32.756,49.074,6.25,13.513,6.25,13.513S406.912,807.894,406.082,796.631Z" fill="#e7af00"/>
              <path id="Path_157" data-name="Path 157" d="M397.832,811.271S386.983,784.643,383.2,777.65s-13.806-21.917-20.2-27.784-42.185-19.828-42.185-19.828,1.271-3.349,2.555-6.016,46.618,18.673,49.725,21.142c7.7,6.117,28.952,51.175,29.905,56.07S397.832,811.271,397.832,811.271Z" fill="#f7c800"/>
            </g>
            <g id="Group_56" data-name="Group 56">
              <path id="Path_158" data-name="Path 158" d="M382.673,753.979c-1.5-1.03-42.94-26.935-52.781-28.543s-50.154,1.771-50.154,1.771l-8.826-7.725s33.489-13.71,60.653-11.981,60.453,32.533,60.453,32.533Z" fill="#e7af00"/>
              <path id="Path_159" data-name="Path 159" d="M386.1,740.7l-2.772,8.018s-23.687-18.1-46.059-25.222-54.452.338-54.452.338L278.39,720.1s27.491-10.445,59.218-6.877S386.1,740.7,386.1,740.7Z" fill="#f7c800"/>
            </g>
            <g id="Group_57" data-name="Group 57">
              <path id="Path_160" data-name="Path 160" d="M304.027,752.906s-7.467,13.82-8.464,15.884,46.78,14.76,62.308,15.071,50.605-15.528,57.11-19.928c0,0,2.286-5.83,1.316-8.066s-47.681,13.979-58.066,12.156S308.354,755.486,304.027,752.906Z" fill="#e7af00"/>
              <path id="Path_161" data-name="Path 161" d="M412.744,758.89s-43.487,12.181-49.939,12.384S307.619,758.8,307.619,758.8l-7.186,11.269s45.9,14.234,66.636,11.976a189.161,189.161,0,0,0,45.011-19.09Z" fill="#f7c800"/>
            </g>
            <g id="Group_58" data-name="Group 58">
              <path id="Path_162" data-name="Path 162" d="M296.665,704.644a25.6,25.6,0,0,1,17.475-2.129s3.69,27.769-8.4,51.459S262.7,795.563,262.7,795.563s-6.5-14.867-7.94-19.674c0,0,30.8-14.189,37.664-26.219S296.665,704.644,296.665,704.644Z" fill="#e7af00"/>
              <path id="Path_163" data-name="Path 163" d="M312.023,705.642c-.43.685,2.3,27.215-10.619,50.117s-36.718,36.891-36.718,36.891l-4.128-11.6s27.808-14.428,33.815-26.44,6.38-48.4,6.38-48.4Z" fill="#f7c800"/>
            </g>
            <g id="Group_59" data-name="Group 59">
              <path id="Path_164" data-name="Path 164" d="M295.457,825.743s-25.175-36.661-34.582-44.814c-18.064-15.661-58.942-14.967-64.516-13.653,0,0-.638-9.612,1.995-12.216s44.307-1.57,54.353,3.484,24.713,13.736,29.014,20.114,22.089,35.766,24.241,39.74S295.457,825.743,295.457,825.743Z" fill="#e7af00"/>
              <path id="Path_165" data-name="Path 165" d="M303.009,819.987l-6.556,1.717s-20.393-30.879-29.869-39.133-35.208-17.041-48.833-17.856-17.634-1.721-17.634-1.721l.689-4.217s35.95-1.7,52.847,5.725S280.408,781.793,303.009,819.987Z" fill="#f7c800"/>
            </g>
          </g>
          <g id="Group_75" data-name="Group 75">
            <g id="Group_61" data-name="Group 61">
              <path id="Path_166" data-name="Path 166" d="M201.652,844.457s-8.33-9.538-7.889-11.715,34.391-15.865,44.073-16.388c13.9-.752,65.259,16.669,71.894,22.931,0,0-2.2,7.557-4.394,9.523s-43.552-16.086-57.577-16.066S201.652,844.457,201.652,844.457Z" fill="#f9bf00"/>
              <path id="Path_167" data-name="Path 167" d="M197.094,834.924s3.55,5.75,5.622,5.317c0,0,42.024-11.989,47.64-11.608s48.895,18.861,52.919,19.3l2.84-7.69s-44.208-18.816-55.184-19.026S205.066,830.389,197.094,834.924Z" fill="#ffed14"/>
            </g>
            <g id="Group_62" data-name="Group 62">
              <path id="Path_168" data-name="Path 168" d="M201.668,785.293s38.656-18.421,53.153-27.205,32.754-35.581,32.754-35.581,8.162,1.317,10.326,2.2l4.946,4.832s-22.549,41.2-36.686,47.453c-6.96,3.076-46.668,23.269-56.459,25.465C209.7,802.454,201.229,789.656,201.668,785.293Z" fill="#f9bf00"/>
              <path id="Path_169" data-name="Path 169" d="M211.089,795.1s45.066-17.544,57.335-27.852,30.2-39.557,30.2-39.557l-10.5-2.719s-18.347,26.134-24.728,30.791-59.035,30.909-59.035,30.909Z" fill="#ffed14"/>
            </g>
            <g id="Group_63" data-name="Group 63">
              <path id="Path_170" data-name="Path 170" d="M318.515,829.158s1.664-31.536,4.245-51.277c7.175-17.6,30.9-33.41,30.9-33.41s-1.8-10.982-4.394-12.3-35.287,20.792-44.014,38.446c-5.711,17.066-4.452,46.643-2.4,51.539C308.491,826.43,318.515,829.158,318.515,829.158Z" fill="#f9bf00"/>
              <path id="Path_171" data-name="Path 171" d="M314.77,823.1s.319-43.141,5.23-52.562S360.438,736.7,360.438,736.7l-2.333-9.758s-36.024,20.879-44.358,35.535-10.12,58.024-10.12,58.024Z" fill="#ffed14"/>
            </g>
            <g id="Group_64" data-name="Group 64">
              <path id="Path_172" data-name="Path 172" d="M271.952,810s16.107,6.89,20.353,5.6,20.5-33.481,24.891-50.769,2.636-49.355,2.636-49.355-12.3.879-14.057,0c0,0-.261,40.1-5.4,50.142S273.269,806.127,271.952,810Z" fill="#f9bf00"/>
              <path id="Path_173" data-name="Path 173" d="M308.432,717.761l5.315-.812s2.247,35.586-1.3,49.453-24.173,41.935-24.173,41.935l-8.834-5.883s22.4-32.862,23.837-37.62S309.017,729.066,308.432,717.761Z" fill="#ffed14"/>
            </g>
            <g id="Group_65" data-name="Group 65">
              <path id="Path_174" data-name="Path 174" d="M234.58,670.673s32.979,14.5,44.839,16.253,61.025.879,62.359,1.757c0,0,.959,8.786-1.489,10.982,0,0-59.991,6.59-68.337,3.953s-38.915-20.206-41.861-24.6S234.58,670.673,234.58,670.673Z" fill="#f9bf00"/>
              <path id="Path_175" data-name="Path 175" d="M230.671,678.021s35.772,22.355,41.281,24.272,66.81-4.7,66.81-4.7v-7.5s-60.23,3.065-66.81.372-36.62-16.714-36.62-16.714S233.111,672.449,230.671,678.021Z" fill="#ffed14"/>
            </g>
            <path id="Path_176" data-name="Path 176" d="M176.866,708.451s12.943,7.467,15.139,11.42c0,0-25.027,45.709-23.495,57.118s8.356,38.614,8.356,38.614-10.339,5.9-12.535,5.6-14.336-36.858-14.5-47.4S172.708,712.843,176.866,708.451Z" fill="#f9bf00"/>
            <path id="Path_177" data-name="Path 177" d="M190.238,797.622s9.234-2.635,11.431-3.953,27.113-40.852,32.885-54.909,3.282-40.852,3.282-40.852h-10.25L221,704.5s-1.158,21.085-6.509,29.43-34.312,42.609-37.621,48.759C176.866,782.686,184.957,793.668,190.238,797.622Z" fill="#f9bf00"/>
            <g id="Group_66" data-name="Group 66">
              <path id="Path_178" data-name="Path 178" d="M230.671,722.507s-1.306,6.59,0,9.224,9.348,5.711,9.348,5.711,41.775-5.711,60.354-18.01,36-32.066,35.858-36.02l-6-9.664H322.76s-20.5,23.281-32.359,29.87S235.077,719.871,230.671,722.507Z" fill="#f9bf00"/>
              <path id="Path_179" data-name="Path 179" d="M240.02,735.262v-8.5s41.139-9.931,56.045-17.1,33.715-33.6,33.715-33.6l6.453,7.355S313.59,711.073,296.065,720.4,240.02,735.262,240.02,735.262Z" fill="#ffed14"/>
            </g>
            <g id="Group_67" data-name="Group 67">
              <path id="Path_180" data-name="Path 180" d="M363.759,785.293s-17.885-21.934-17.069-57.516,9.338-52.713,11.885-56.665,9.895-6.151,9.895-6.151,3.274,2.636,4.114,5.272,2.5,11.86,2.5,11.86-13.525,31.626-10.011,49.636,20.326,43.952,21.365,45.257-4.6,7.836-8.153,8.3S363.759,785.293,363.759,785.293Z" fill="#f9bf00"/>
              <path id="Path_181" data-name="Path 181" d="M366.615,669.2s-4.2,2.611-7.26,4.417-12.08,33.162-11.251,50.235,5.79,43.576,15.884,54.385l11.879-3.573a108.8,108.8,0,0,1-17.968-49.69C355.2,696.01,364.448,683.823,366.615,669.2Z" fill="#ffed14"/>
            </g>
            <path id="Path_182" data-name="Path 182" d="M227.968,700.885s1.07,23.218-5.832,38.07S192.005,784.7,192.005,784.7l-13.35-3.321s33.251-37.334,38.35-48.731,5.131-26.985,5.131-26.985Z" fill="#ffed14"/>
            <path id="Path_183" data-name="Path 183" d="M176.866,709.657l7.935,7.009s-24.965,43.394-26.78,53.872,9.032,38.427,9.032,38.427l-4.717,1.594s-11.85-24.54-10.463-37.458S176.866,709.657,176.866,709.657Z" fill="#ffed14"/>
            <g id="Group_68" data-name="Group 68">
              <path id="Path_184" data-name="Path 184" d="M209.7,866s-33.511,14.749-48.007,8.545-43.487-23.335-43.487-23.335-5.271,5.537-6.15,8.48,15.374,19.939,21.963,24.837,43.466,10.437,56.216,4.813,19.7-19.719,20.617-21.238S209.7,866,209.7,866Z" fill="#f9bf00"/>
              <path id="Path_185" data-name="Path 185" d="M114.262,860.784s31.829,26.275,42.551,27.37,28.3-.538,32.913-3.03,13.615-13.917,13.615-13.917a2.7,2.7,0,0,0-3.714-1.313c-2.5,1.249-10.645,8.472-16.843,9.561s-21.49-1.577-27.074-3.9-33.834-19.54-36.574-20.932S115.894,859.882,114.262,860.784Z" fill="#ffed14"/>
            </g>
            <g id="Group_69" data-name="Group 69">
              <path id="Path_186" data-name="Path 186" d="M130.068,802.454s28.144,45.893,46.8,54.355,48.666,6.7,48.666,6.7,4.713-6.588,5.14-12.3c0,0-35.943-2.865-45.871-10.437s-35.4-34.369-40.237-43.154-8.346-12.328-8.346-12.328S127.432,791.472,130.068,802.454Z" fill="#f9bf00"/>
              <path id="Path_187" data-name="Path 187" d="M135.849,786.675s15,24.531,19.861,30.823,17.157,19.406,24.413,24.165,44.83,12.77,44.83,12.77-.714,3.509-1.552,6.348-49.018-10.915-52.482-12.85c-8.583-4.8-36.823-45.84-38.551-50.518S135.849,786.675,135.849,786.675Z" fill="#ffed14"/>
            </g>
            <g id="Group_70" data-name="Group 70">
              <path id="Path_188" data-name="Path 188" d="M160.045,840.776c1.65.772,46.72,19.661,56.691,19.661s49.212-9.83,49.212-9.83l9.957,6.2s-30.841,18.928-57.931,21.6-64.905-22.363-64.905-22.363Z" fill="#f9bf00"/>
              <path id="Path_189" data-name="Path 189" d="M158.8,854.433l1.443-8.359s26.3,14.045,49.521,17.468,53.686-9.109,53.686-9.109l4.972,2.967s-25.448,14.74-57.335,16.331S158.8,854.433,158.8,854.433Z" fill="#ffed14"/>
            </g>
            <g id="Group_71" data-name="Group 71">
              <path id="Path_190" data-name="Path 190" d="M237.835,829.158s5.141-14.843,5.792-17.039-48.548-7.028-63.923-4.832-47.44,23.483-53.151,28.872c0,0-1.317,6.123,0,8.172s44.806-21.481,55.349-21.356S233.15,827.308,237.835,829.158Z" fill="#f9bf00"/>
              <path id="Path_191" data-name="Path 191" d="M129.574,840.776s40.956-19.031,47.292-20.272,56.474,3.416,56.474,3.416l5.275-12.28s-47.6-6.651-67.7-1.08a189.155,189.155,0,0,0-41.345,26.095Z" fill="#ffed14"/>
            </g>
            <g id="Group_72" data-name="Group 72">
              <path id="Path_192" data-name="Path 192" d="M260.53,913.225a25.594,25.594,0,0,1-16.9,4.918s-8.118-26.81,0-52.141,35.766-47.981,35.766-47.981,8.81,13.625,11.006,18.137c0,0-28.113,18.969-32.945,31.947S260.53,913.225,260.53,913.225Z" fill="#f9bf00"/>
              <path id="Path_193" data-name="Path 193" d="M245.212,914.716c.315-.746-6.657-26.488,2.4-51.174s30.292-42.327,30.292-42.327L283.85,832s-25.12,18.721-29.111,31.545,1.5,48.793,1.5,48.793Z" fill="#ffed14"/>
            </g>
            <g id="Group_73" data-name="Group 73">
              <path id="Path_194" data-name="Path 194" d="M234.553,755.891s30.755,32.126,41.352,38.656c20.353,12.544,60.585,5.272,65.873,3.075,0,0,2.18,9.383,0,12.379s-43.474,8.689-54.2,5.32-26.6-9.573-31.876-15.173-27.566-31.74-30.331-35.315S234.553,755.891,234.553,755.891Z" fill="#f9bf00"/>
              <path id="Path_195" data-name="Path 195" d="M228.028,762.791l6.195-2.753s25.1,27.189,35.785,33.808,37.493,11.143,51.073,9.752,17.681-1.144,17.681-1.144v4.273s-35.207,7.473-53.08,2.868S256.489,796.842,228.028,762.791Z" fill="#ffed14"/>
            </g>
            <g id="Group_74" data-name="Group 74">
              <path id="Path_196" data-name="Path 196" d="M177.283,716.767c-8.614,9.468-14.9,24.9-17.6,37.352a2.229,2.229,0,0,0,4.124,1.54c3.116-5.431,5.194-11.461,7.681-17.2,2.834-6.533,6.585-12.532,9.65-18.931C182.283,717.143,179.152,714.711,177.283,716.767Z" fill="#fffdeb"/>
              <path id="Path_197" data-name="Path 197" d="M223.242,707.685c-1.086,9.1-4.044,17.59-5.76,26.526-.409,2.139,2.689,3.473,3.681,1.374,3.884-8.213,5.479-17.917,6.489-26.879C227.974,705.849,223.589,704.777,223.242,707.685Z" fill="#fffdeb"/>
              <path id="Path_198" data-name="Path 198" d="M283.011,696.453a183.449,183.449,0,0,1-33.041-13.066c-1.752-.917-3.748,1.645-2.085,2.91,9.682,7.366,22.237,14.272,34.724,14.193C285.029,700.477,285.165,697.1,283.011,696.453Z" fill="#fffdeb"/>
              <path id="Path_199" data-name="Path 199" d="M149.9,812.194c-4.436-6.644-9.1-12.959-12.961-19.985-.981-1.786-4.086-.462-3.3,1.454A61.632,61.632,0,0,0,147.166,814.4C148.593,815.785,151.022,813.874,149.9,812.194Z" fill="#fffdeb"/>
              <path id="Path_200" data-name="Path 200" d="M159.432,879.052c-4.214-3.723-10.478-4.78-15.589-6.891a66.92,66.92,0,0,1-17.312-10.349,1.981,1.981,0,0,0-2.718,2.881,60.816,60.816,0,0,0,16.994,13.194c5.183,2.731,11.958,5.838,17.86,4.36A1.907,1.907,0,0,0,159.432,879.052Z" fill="#fffdeb"/>
              <path id="Path_201" data-name="Path 201" d="M177.127,815.436c-7.295-.223-14.868,3.162-21.529,5.817-6.509,2.6-12.674,5.743-17.622,10.762-1.307,1.328.434,3.083,1.925,2.383,6.4-3.006,12.757-6.024,19.386-8.5,6.17-2.307,13.354-3.745,18.6-7.878A1.4,1.4,0,0,0,177.127,815.436Z" fill="#fffdeb"/>
              <path id="Path_202" data-name="Path 202" d="M201.125,864.755c-3.21-3.05-8.853-2.877-13.006-3.633-6.046-1.1-11.968-2.942-17.05-6.469-1.868-1.3-3.337,1.527-2.136,2.98,3.757,4.539,9.054,6.837,14.6,8.452,4.872,1.418,12.478,3.879,17.3,1.459A1.774,1.774,0,0,0,201.125,864.755Z" fill="#fffdeb"/>
              <path id="Path_203" data-name="Path 203" d="M264.242,791.036c-2.579-4.936-7.818-7.764-12.038-11.189-4.6-3.733-9.255-7.5-13.611-11.512-1.26-1.161-3.5.5-2.415,1.953a92.733,92.733,0,0,0,12.155,13.66c4.149,3.732,8.678,8.346,14.4,9.167A1.409,1.409,0,0,0,264.242,791.036Z" fill="#fffdeb"/>
              <path id="Path_204" data-name="Path 204" d="M280.6,744.355c-.1-1.024-1.137-2.1-2.257-1.641-4.388,1.8-7.307,7.664-10.408,11.109-3.83,4.252-8.8,6.692-12.889,10.489a1.445,1.445,0,0,0,.721,2.384c5.412,1.04,10.887-3.325,14.657-6.692S281.157,749.945,280.6,744.355Z" fill="#fffdeb"/>
              <path id="Path_205" data-name="Path 205" d="M291.792,716.531c-7.206.326-14.223,2.55-21.236,4.109-7,1.555-14.329,2.585-20.785,5.826-1.368.686-.545,2.639.787,2.664,7.2.133,14.556-1.689,21.583-3.086,7.087-1.409,14.361-2.785,20.426-6.89A1.424,1.424,0,0,0,291.792,716.531Z" fill="#fffdeb"/>
              <path id="Path_206" data-name="Path 206" d="M359.348,675.995c-3.962,7.305-5.806,16.187-7.719,24.227-1.727,7.251-3.645,15.859-1.584,23.186a1.271,1.271,0,0,0,2.441-.071c2.056-7.981,1.979-16.47,3.856-24.575,1.708-7.379,4.819-14.622,5.548-22.173C362.027,675.174,359.944,674.9,359.348,675.995Z" fill="#fffdeb"/>
              <path id="Path_207" data-name="Path 207" d="M312.438,726.44a1.16,1.16,0,0,0-2.231.066c-1.056,6.859-.944,13.925-1.428,20.849-.528,7.54-2.767,15.553-2.046,23.089.118,1.231,1.964,1.931,2.541.593,2.8-6.5,2.83-14.221,3.448-21.22C313.4,742.139,313.995,734.032,312.438,726.44Z" fill="#fffdeb"/>
              <path id="Path_208" data-name="Path 208" d="M277.4,826.721c-6.356,1.46-11.025,6.477-14.883,11.46-4.083,5.271-8.3,11.639-9.691,18.247a1.449,1.449,0,0,0,2.445,1.31c4.187-3.65,6.92-8.942,10.014-13.492,3.888-5.721,8.958-9.887,13.915-14.587C280.574,828.359,279.022,826.349,277.4,826.721Z" fill="#fffdeb"/>
              <path id="Path_209" data-name="Path 209" d="M223.885,828.554c-6.119-1.752-13.632,3.629-19.233,5.59-1.328.466-1.125,2.8.407,2.559a59.65,59.65,0,0,0,9.019-2.133c3.322-1.059,7.3-1.616,10.19-3.627A1.319,1.319,0,0,0,223.885,828.554Z" fill="#fffdeb"/>
              <path id="Path_210" data-name="Path 210" d="M340.54,743.058c-4.465-.106-9,4.309-12.193,6.977-3.754,3.132-7.413,7.207-8.541,12.073a1.792,1.792,0,0,0,3.315,1.239,43.07,43.07,0,0,1,8.739-10c3.038-2.623,7.959-4.7,9.911-8.312A1.364,1.364,0,0,0,340.54,743.058Z" fill="#fffdeb"/>
              <path id="Path_211" data-name="Path 211" d="M211.882,742.918c-2.977,1.8-5.048,5.691-5.9,8.958a1.883,1.883,0,0,0,3.184,1.706c2.114-2.469,5.415-4.863,6.117-8.2A2.3,2.3,0,0,0,211.882,742.918Z" fill="#fffdeb"/>
            </g>
          </g>
        </g>
      </g>
    </g>
  </g>
</svg>
